M48
; DRILL file {KiCad (5.1.6)-1} date 04/05/23 02:20:02
; FORMAT={3:3/ absolute / metric / suppress leading zeros}
; #@! TF.CreationDate,2023-04-05T02:20:02+09:00
; #@! TF.GenerationSoftware,Kicad,Pcbnew,(5.1.6)-1
FMAT,2
METRIC,TZ
T1C0.400
T2C0.800
T3C0.850
T4C1.000
T5C1.020
T6C3.200
%
G90
G05
T1
X8255Y-33655
X15240Y-6985
X15240Y-12065
X16510Y-36195
X18415Y-12065
X33655Y0
X46355Y-13335
X46355Y-15875
X46355Y-18415
X46355Y-20955
X46355Y-23495
X48260Y-47625
X48260Y-64770
X52705Y-14605
X52705Y-19685
X52705Y-24765
X52705Y-29845
X52705Y-34925
X59690Y-14605
X60325Y-19685
X60325Y-24765
X60325Y-27305
X66675Y-26035
X66675Y-28575
X86995Y-82550
T2
X66040Y-12700
X93980Y-8890
X93980Y-11430
X93980Y-13970
X93980Y-16510
X93980Y-19050
X80645Y-6985
X83185Y-6985
X22860Y-76200
X22860Y-83820
X25400Y-76200
X25400Y-83820
X30480Y-60325
X30480Y-67945
X33020Y-60325
X33020Y-67945
X80010Y-60960
X80010Y-68580
X82550Y-60960
X82550Y-68580
X50800Y-41275
X50800Y-43815
X58420Y-41275
X58420Y-43815
X69850Y-60960
X69850Y-68580
X72390Y-60960
X72390Y-68580
X59690Y-74930
X59690Y-82550
X62230Y-74930
X62230Y-82550
X49530Y-88900
X52070Y-88900
X0Y-71120
X0Y-73660
X93980Y-72390
X93980Y-74930
X93980Y-77470
X93980Y-80010
X93980Y-82550
X93980Y-85090
X12700Y-70485
X15240Y-70485
X27940Y-70485
X30480Y-70485
X80645Y-14605
X83185Y-14605
X50800Y-15875
X50800Y-18415
X58420Y-15875
X58420Y-18415
X25400Y-60325
X25400Y-67945
X27940Y-60325
X27940Y-67945
X10160Y-60325
X10160Y-67945
X12700Y-60325
X12700Y-67945
X80645Y-10795
X83185Y-10795
X50800Y-51435
X50800Y-53975
X58420Y-51435
X58420Y-53975
X35560Y-88900
X38100Y-88900
X49530Y-74930
X49530Y-82550
X52070Y-74930
X52070Y-82550
X50800Y-5715
X50800Y-8255
X58420Y-5715
X58420Y-8255
X7620Y0
X10160Y0
X12700Y0
X15240Y0
X63500Y0
X66040Y0
X68580Y0
X17780Y-70485
X20320Y-70485
X80645Y-22225
X83185Y-22225
X50800Y-46355
X50800Y-48895
X58420Y-46355
X58420Y-48895
X50800Y-20955
X50800Y-23495
X58420Y-20955
X58420Y-23495
X80645Y-18415
X83185Y-18415
X69850Y-74930
X69850Y-82550
X72390Y-74930
X72390Y-82550
X76200Y0
X78740Y0
X81280Y0
X83820Y0
X74930Y-74930
X74930Y-82550
X77470Y-74930
X77470Y-82550
X10160Y-93980
X12700Y-93980
X15240Y-93980
X0Y-81280
X0Y-83820
X35560Y-93980
X38100Y-93980
X40640Y-93980
X44450Y-74930
X44450Y-82550
X46990Y-74930
X46990Y-82550
X50800Y-26035
X50800Y-28575
X58420Y-26035
X58420Y-28575
X80645Y-26035
X83185Y-26035
X80010Y-74930
X80010Y-82550
X82550Y-74930
X82550Y-82550
X74930Y-60960
X74930Y-68580
X77470Y-60960
X77470Y-68580
X63500Y-6350
X66040Y-6350
X66040Y-93980
X68580Y-93980
X71120Y-93980
X73660Y-93980
X76200Y-93980
X78740Y-93980
X81280Y-93980
X83820Y-93980
X7620Y-76200
X7620Y-83820
X10160Y-76200
X10160Y-83820
X12700Y-76200
X12700Y-83820
X59690Y-60960
X59690Y-68580
X62230Y-60960
X62230Y-68580
X64770Y-60960
X64770Y-68580
X67310Y-60960
X67310Y-68580
X50800Y-31115
X50800Y-33655
X58420Y-31115
X58420Y-33655
X22860Y-93980
X25400Y-93980
X27940Y-93980
X15240Y-76200
X15240Y-83820
X17780Y-76200
X17780Y-83820
X20320Y-76200
X20320Y-83820
X12700Y-88900
X15240Y-88900
X67945Y-12065
X67945Y-14605
X0Y-10160
X0Y-12700
X0Y-15240
X0Y-17780
X0Y-20320
X0Y-22860
X0Y-25400
X0Y-27940
X0Y-30480
X33020Y-70485
X35560Y-70485
X33020Y-76200
X33020Y-83820
X35560Y-76200
X35560Y-83820
X35560Y-60325
X35560Y-67945
X38100Y-60325
X38100Y-67945
X20320Y-60325
X20320Y-67945
X22860Y-60325
X22860Y-67945
X54610Y-74930
X54610Y-82550
X57150Y-74930
X57150Y-82550
X22860Y0
X25400Y0
X27940Y0
X30480Y0
X50800Y-10795
X50800Y-13335
X58420Y-10795
X58420Y-13335
X41910Y-26035
X41910Y-28575
X0Y-38100
X0Y-40640
X0Y-43180
X0Y-45720
X0Y-48260
X0Y-50800
X40640Y0
X43180Y0
X45720Y0
X48260Y0
X50800Y0
X53340Y0
X7620Y-70485
X10160Y-70485
X27940Y-76200
X27940Y-83820
X30480Y-76200
X30480Y-83820
X64770Y-74930
X64770Y-82550
X67310Y-74930
X67310Y-82550
X15240Y-60325
X15240Y-67945
X17780Y-60325
X17780Y-67945
X50800Y-36195
X50800Y-38735
X58420Y-36195
X58420Y-38735
X93980Y-44450
X93980Y-46990
X93980Y-49530
X93980Y-52070
X93980Y-54610
X93980Y-57150
X93980Y-59690
X93980Y-62230
X93980Y-64770
X54610Y-60960
X54610Y-68580
X57150Y-60960
X57150Y-68580
X49530Y-93980
X52070Y-93980
X54610Y-93980
X0Y-58420
X0Y-60960
X0Y-63500
X93980Y-26670
X93980Y-29210
X93980Y-31750
X93980Y-34290
X93980Y-36830
X22860Y-70485
X25400Y-70485
T3
X22763Y-5715
X22763Y-8255
X22763Y-10795
X22763Y-13335
X22763Y-15875
X22763Y-18415
X22763Y-20955
X22763Y-23495
X22763Y-26035
X22763Y-28575
X22763Y-31115
X22763Y-33655
X22763Y-36195
X22763Y-38735
X22763Y-41275
X22763Y-43815
X22763Y-46355
X22763Y-48895
X22763Y-51435
X22763Y-53975
X38197Y-5715
X38197Y-8255
X38197Y-10795
X38197Y-13335
X38197Y-15875
X38197Y-18415
X38197Y-20955
X38197Y-23495
X38197Y-26035
X38197Y-28575
X38197Y-31115
X38197Y-33655
X38197Y-36195
X38197Y-38735
X38197Y-41275
X38197Y-43815
X38197Y-46355
X38197Y-48895
X38197Y-51435
X38197Y-53975
T4
X50800Y-60960
T5
X9525Y-6985
X9525Y-9525
X9525Y-12065
X9525Y-14605
X9525Y-17145
X9525Y-19685
X9525Y-22225
X9525Y-24765
X9525Y-27305
X9525Y-29845
X9525Y-32385
X9525Y-34925
X9525Y-37465
X9525Y-40005
X9525Y-42545
X9525Y-45085
X9525Y-47625
X9525Y-50165
X9525Y-52705
X12065Y-6985
X12065Y-9525
X12065Y-12065
X12065Y-14605
X12065Y-17145
X12065Y-19685
X12065Y-22225
X12065Y-24765
X12065Y-27305
X12065Y-29845
X12065Y-32385
X12065Y-34925
X12065Y-37465
X12065Y-40005
X12065Y-42545
X12065Y-45085
X12065Y-47625
X12065Y-50165
X12065Y-52705
X70485Y-6985
X70485Y-9525
X70485Y-12065
X70485Y-14605
X70485Y-17145
X70485Y-19685
X70485Y-22225
X70485Y-24765
X70485Y-27305
X70485Y-29845
X70485Y-32385
X70485Y-34925
X70485Y-37465
X70485Y-40005
X70485Y-42545
X70485Y-45085
X70485Y-47625
X70485Y-50165
X70485Y-52705
X73025Y-6985
X73025Y-9525
X73025Y-12065
X73025Y-14605
X73025Y-17145
X73025Y-19685
X73025Y-22225
X73025Y-24765
X73025Y-27305
X73025Y-29845
X73025Y-32385
X73025Y-34925
X73025Y-37465
X73025Y-40005
X73025Y-42545
X73025Y-45085
X73025Y-47625
X73025Y-50165
X73025Y-52705
T6
X92980Y-92980
X92980Y-1000
X1000Y-92980
X1000Y-1000
T0
M30
