G04 #@! TF.GenerationSoftware,KiCad,Pcbnew,(5.1.6)-1*
G04 #@! TF.CreationDate,2023-04-05T02:19:51+09:00*
G04 #@! TF.ProjectId,SubPCB,53756250-4342-42e6-9b69-6361645f7063,rev?*
G04 #@! TF.SameCoordinates,Original*
G04 #@! TF.FileFunction,Copper,L2,Bot*
G04 #@! TF.FilePolarity,Positive*
%FSLAX46Y46*%
G04 Gerber Fmt 4.6, Leading zero omitted, Abs format (unit mm)*
G04 Created by KiCad (PCBNEW (5.1.6)-1) date 2023-04-05 02:19:51*
%MOMM*%
%LPD*%
G01*
G04 APERTURE LIST*
G04 #@! TA.AperFunction,ComponentPad*
%ADD10O,1.600000X1.600000*%
G04 #@! TD*
G04 #@! TA.AperFunction,ComponentPad*
%ADD11R,1.600000X1.600000*%
G04 #@! TD*
G04 #@! TA.AperFunction,ComponentPad*
%ADD12R,1.530000X1.530000*%
G04 #@! TD*
G04 #@! TA.AperFunction,ComponentPad*
%ADD13C,1.530000*%
G04 #@! TD*
G04 #@! TA.AperFunction,ComponentPad*
%ADD14C,1.600000*%
G04 #@! TD*
G04 #@! TA.AperFunction,ComponentPad*
%ADD15C,1.280000*%
G04 #@! TD*
G04 #@! TA.AperFunction,ComponentPad*
%ADD16R,1.280000X1.280000*%
G04 #@! TD*
G04 #@! TA.AperFunction,ComponentPad*
%ADD17C,5.700000*%
G04 #@! TD*
G04 #@! TA.AperFunction,ViaPad*
%ADD18C,0.800000*%
G04 #@! TD*
G04 #@! TA.AperFunction,ViaPad*
%ADD19C,1.600000*%
G04 #@! TD*
G04 #@! TA.AperFunction,ViaPad*
%ADD20C,2.000000*%
G04 #@! TD*
G04 #@! TA.AperFunction,Conductor*
%ADD21C,0.400000*%
G04 #@! TD*
G04 #@! TA.AperFunction,Conductor*
%ADD22C,1.000000*%
G04 #@! TD*
G04 #@! TA.AperFunction,Conductor*
%ADD23C,0.250000*%
G04 #@! TD*
G04 APERTURE END LIST*
D10*
X83185000Y-6985000D03*
D11*
X80645000Y-6985000D03*
D10*
X83185000Y-10795000D03*
D11*
X80645000Y-10795000D03*
D10*
X83185000Y-14605000D03*
D11*
X80645000Y-14605000D03*
D10*
X83185000Y-18415000D03*
D11*
X80645000Y-18415000D03*
D10*
X83185000Y-22225000D03*
D11*
X80645000Y-22225000D03*
D10*
X83185000Y-26035000D03*
D11*
X80645000Y-26035000D03*
G04 #@! TA.AperFunction,SMDPad,CuDef*
G36*
G01*
X40925000Y-23257500D02*
X40925000Y-23732500D01*
G75*
G02*
X40687500Y-23970000I-237500J0D01*
G01*
X40112500Y-23970000D01*
G75*
G02*
X39875000Y-23732500I0J237500D01*
G01*
X39875000Y-23257500D01*
G75*
G02*
X40112500Y-23020000I237500J0D01*
G01*
X40687500Y-23020000D01*
G75*
G02*
X40925000Y-23257500I0J-237500D01*
G01*
G37*
G04 #@! TD.AperFunction*
G04 #@! TA.AperFunction,SMDPad,CuDef*
G36*
G01*
X42675000Y-23257500D02*
X42675000Y-23732500D01*
G75*
G02*
X42437500Y-23970000I-237500J0D01*
G01*
X41862500Y-23970000D01*
G75*
G02*
X41625000Y-23732500I0J237500D01*
G01*
X41625000Y-23257500D01*
G75*
G02*
X41862500Y-23020000I237500J0D01*
G01*
X42437500Y-23020000D01*
G75*
G02*
X42675000Y-23257500I0J-237500D01*
G01*
G37*
G04 #@! TD.AperFunction*
G04 #@! TA.AperFunction,SMDPad,CuDef*
G36*
G01*
X40925000Y-20717500D02*
X40925000Y-21192500D01*
G75*
G02*
X40687500Y-21430000I-237500J0D01*
G01*
X40112500Y-21430000D01*
G75*
G02*
X39875000Y-21192500I0J237500D01*
G01*
X39875000Y-20717500D01*
G75*
G02*
X40112500Y-20480000I237500J0D01*
G01*
X40687500Y-20480000D01*
G75*
G02*
X40925000Y-20717500I0J-237500D01*
G01*
G37*
G04 #@! TD.AperFunction*
G04 #@! TA.AperFunction,SMDPad,CuDef*
G36*
G01*
X42675000Y-20717500D02*
X42675000Y-21192500D01*
G75*
G02*
X42437500Y-21430000I-237500J0D01*
G01*
X41862500Y-21430000D01*
G75*
G02*
X41625000Y-21192500I0J237500D01*
G01*
X41625000Y-20717500D01*
G75*
G02*
X41862500Y-20480000I237500J0D01*
G01*
X42437500Y-20480000D01*
G75*
G02*
X42675000Y-20717500I0J-237500D01*
G01*
G37*
G04 #@! TD.AperFunction*
G04 #@! TA.AperFunction,SMDPad,CuDef*
G36*
G01*
X40925000Y-18177500D02*
X40925000Y-18652500D01*
G75*
G02*
X40687500Y-18890000I-237500J0D01*
G01*
X40112500Y-18890000D01*
G75*
G02*
X39875000Y-18652500I0J237500D01*
G01*
X39875000Y-18177500D01*
G75*
G02*
X40112500Y-17940000I237500J0D01*
G01*
X40687500Y-17940000D01*
G75*
G02*
X40925000Y-18177500I0J-237500D01*
G01*
G37*
G04 #@! TD.AperFunction*
G04 #@! TA.AperFunction,SMDPad,CuDef*
G36*
G01*
X42675000Y-18177500D02*
X42675000Y-18652500D01*
G75*
G02*
X42437500Y-18890000I-237500J0D01*
G01*
X41862500Y-18890000D01*
G75*
G02*
X41625000Y-18652500I0J237500D01*
G01*
X41625000Y-18177500D01*
G75*
G02*
X41862500Y-17940000I237500J0D01*
G01*
X42437500Y-17940000D01*
G75*
G02*
X42675000Y-18177500I0J-237500D01*
G01*
G37*
G04 #@! TD.AperFunction*
G04 #@! TA.AperFunction,SMDPad,CuDef*
G36*
G01*
X40925000Y-15637500D02*
X40925000Y-16112500D01*
G75*
G02*
X40687500Y-16350000I-237500J0D01*
G01*
X40112500Y-16350000D01*
G75*
G02*
X39875000Y-16112500I0J237500D01*
G01*
X39875000Y-15637500D01*
G75*
G02*
X40112500Y-15400000I237500J0D01*
G01*
X40687500Y-15400000D01*
G75*
G02*
X40925000Y-15637500I0J-237500D01*
G01*
G37*
G04 #@! TD.AperFunction*
G04 #@! TA.AperFunction,SMDPad,CuDef*
G36*
G01*
X42675000Y-15637500D02*
X42675000Y-16112500D01*
G75*
G02*
X42437500Y-16350000I-237500J0D01*
G01*
X41862500Y-16350000D01*
G75*
G02*
X41625000Y-16112500I0J237500D01*
G01*
X41625000Y-15637500D01*
G75*
G02*
X41862500Y-15400000I237500J0D01*
G01*
X42437500Y-15400000D01*
G75*
G02*
X42675000Y-15637500I0J-237500D01*
G01*
G37*
G04 #@! TD.AperFunction*
G04 #@! TA.AperFunction,SMDPad,CuDef*
G36*
G01*
X40925000Y-13097500D02*
X40925000Y-13572500D01*
G75*
G02*
X40687500Y-13810000I-237500J0D01*
G01*
X40112500Y-13810000D01*
G75*
G02*
X39875000Y-13572500I0J237500D01*
G01*
X39875000Y-13097500D01*
G75*
G02*
X40112500Y-12860000I237500J0D01*
G01*
X40687500Y-12860000D01*
G75*
G02*
X40925000Y-13097500I0J-237500D01*
G01*
G37*
G04 #@! TD.AperFunction*
G04 #@! TA.AperFunction,SMDPad,CuDef*
G36*
G01*
X42675000Y-13097500D02*
X42675000Y-13572500D01*
G75*
G02*
X42437500Y-13810000I-237500J0D01*
G01*
X41862500Y-13810000D01*
G75*
G02*
X41625000Y-13572500I0J237500D01*
G01*
X41625000Y-13097500D01*
G75*
G02*
X41862500Y-12860000I237500J0D01*
G01*
X42437500Y-12860000D01*
G75*
G02*
X42675000Y-13097500I0J-237500D01*
G01*
G37*
G04 #@! TD.AperFunction*
G04 #@! TA.AperFunction,SMDPad,CuDef*
G36*
G01*
X40925000Y-10557500D02*
X40925000Y-11032500D01*
G75*
G02*
X40687500Y-11270000I-237500J0D01*
G01*
X40112500Y-11270000D01*
G75*
G02*
X39875000Y-11032500I0J237500D01*
G01*
X39875000Y-10557500D01*
G75*
G02*
X40112500Y-10320000I237500J0D01*
G01*
X40687500Y-10320000D01*
G75*
G02*
X40925000Y-10557500I0J-237500D01*
G01*
G37*
G04 #@! TD.AperFunction*
G04 #@! TA.AperFunction,SMDPad,CuDef*
G36*
G01*
X42675000Y-10557500D02*
X42675000Y-11032500D01*
G75*
G02*
X42437500Y-11270000I-237500J0D01*
G01*
X41862500Y-11270000D01*
G75*
G02*
X41625000Y-11032500I0J237500D01*
G01*
X41625000Y-10557500D01*
G75*
G02*
X41862500Y-10320000I237500J0D01*
G01*
X42437500Y-10320000D01*
G75*
G02*
X42675000Y-10557500I0J-237500D01*
G01*
G37*
G04 #@! TD.AperFunction*
D12*
X73025000Y-6985000D03*
D13*
X73025000Y-52705000D03*
X70485000Y-6985000D03*
X73025000Y-9525000D03*
X70485000Y-9525000D03*
X73025000Y-12065000D03*
X70485000Y-12065000D03*
X73025000Y-14605000D03*
X70485000Y-14605000D03*
X73025000Y-17145000D03*
X70485000Y-17145000D03*
X73025000Y-19685000D03*
X70485000Y-19685000D03*
X73025000Y-22225000D03*
X70485000Y-22225000D03*
X73025000Y-24765000D03*
X70485000Y-24765000D03*
X73025000Y-27305000D03*
X70485000Y-27305000D03*
X73025000Y-29845000D03*
X70485000Y-29845000D03*
X73025000Y-32385000D03*
X70485000Y-32385000D03*
X73025000Y-34925000D03*
X70485000Y-34925000D03*
X73025000Y-37465000D03*
X70485000Y-37465000D03*
X73025000Y-40005000D03*
X70485000Y-40005000D03*
X73025000Y-42545000D03*
X70485000Y-42545000D03*
X73025000Y-45085000D03*
X70485000Y-45085000D03*
X73025000Y-47625000D03*
X70485000Y-47625000D03*
X73025000Y-50165000D03*
X70485000Y-50165000D03*
X70485000Y-52705000D03*
D12*
X12065000Y-6985000D03*
D13*
X12065000Y-52705000D03*
X9525000Y-6985000D03*
X12065000Y-9525000D03*
X9525000Y-9525000D03*
X12065000Y-12065000D03*
X9525000Y-12065000D03*
X12065000Y-14605000D03*
X9525000Y-14605000D03*
X12065000Y-17145000D03*
X9525000Y-17145000D03*
X12065000Y-19685000D03*
X9525000Y-19685000D03*
X12065000Y-22225000D03*
X9525000Y-22225000D03*
X12065000Y-24765000D03*
X9525000Y-24765000D03*
X12065000Y-27305000D03*
X9525000Y-27305000D03*
X12065000Y-29845000D03*
X9525000Y-29845000D03*
X12065000Y-32385000D03*
X9525000Y-32385000D03*
X12065000Y-34925000D03*
X9525000Y-34925000D03*
X12065000Y-37465000D03*
X9525000Y-37465000D03*
X12065000Y-40005000D03*
X9525000Y-40005000D03*
X12065000Y-42545000D03*
X9525000Y-42545000D03*
X12065000Y-45085000D03*
X9525000Y-45085000D03*
X12065000Y-47625000D03*
X9525000Y-47625000D03*
X12065000Y-50165000D03*
X9525000Y-50165000D03*
X9525000Y-52705000D03*
D10*
X25400000Y-93980000D03*
X22860000Y-93980000D03*
D11*
X27940000Y-93980000D03*
X76200000Y0D03*
D10*
X81280000Y0D03*
X78740000Y0D03*
X83820000Y0D03*
X93980000Y-52070000D03*
X93980000Y-46990000D03*
X93980000Y-49530000D03*
D11*
X93980000Y-44450000D03*
D10*
X93980000Y-54610000D03*
X93980000Y-57150000D03*
X93980000Y-59690000D03*
X93980000Y-62230000D03*
X93980000Y-64770000D03*
X46990000Y-82550000D03*
X44450000Y-74930000D03*
X44450000Y-82550000D03*
D11*
X46990000Y-74930000D03*
D10*
X52070000Y-82550000D03*
X49530000Y-74930000D03*
X49530000Y-82550000D03*
D11*
X52070000Y-74930000D03*
D10*
X57150000Y-82550000D03*
X54610000Y-74930000D03*
X54610000Y-82550000D03*
D11*
X57150000Y-74930000D03*
D10*
X62230000Y-82550000D03*
X59690000Y-74930000D03*
X59690000Y-82550000D03*
D11*
X62230000Y-74930000D03*
D10*
X67310000Y-82550000D03*
X64770000Y-74930000D03*
X64770000Y-82550000D03*
D11*
X67310000Y-74930000D03*
D10*
X72390000Y-82550000D03*
X69850000Y-74930000D03*
X69850000Y-82550000D03*
D11*
X72390000Y-74930000D03*
D10*
X77470000Y-82550000D03*
X74930000Y-74930000D03*
X74930000Y-82550000D03*
D11*
X77470000Y-74930000D03*
D10*
X82550000Y-82550000D03*
X80010000Y-74930000D03*
X80010000Y-82550000D03*
D11*
X82550000Y-74930000D03*
D10*
X57150000Y-68580000D03*
X54610000Y-60960000D03*
X54610000Y-68580000D03*
D11*
X57150000Y-60960000D03*
D10*
X62230000Y-68580000D03*
X59690000Y-60960000D03*
X59690000Y-68580000D03*
D11*
X62230000Y-60960000D03*
D10*
X67310000Y-68580000D03*
X64770000Y-60960000D03*
X64770000Y-68580000D03*
D11*
X67310000Y-60960000D03*
D10*
X72390000Y-68580000D03*
X69850000Y-60960000D03*
X69850000Y-68580000D03*
D11*
X72390000Y-60960000D03*
D10*
X77470000Y-68580000D03*
X74930000Y-60960000D03*
X74930000Y-68580000D03*
D11*
X77470000Y-60960000D03*
D10*
X82550000Y-68580000D03*
X80010000Y-60960000D03*
X80010000Y-68580000D03*
D11*
X82550000Y-60960000D03*
D10*
X58420000Y-51435000D03*
X50800000Y-53975000D03*
X58420000Y-53975000D03*
D11*
X50800000Y-51435000D03*
D10*
X58420000Y-46355000D03*
X50800000Y-48895000D03*
X58420000Y-48895000D03*
D11*
X50800000Y-46355000D03*
D10*
X58420000Y-41275000D03*
X50800000Y-43815000D03*
X58420000Y-43815000D03*
D11*
X50800000Y-41275000D03*
D10*
X58420000Y-36195000D03*
X50800000Y-38735000D03*
X58420000Y-38735000D03*
D11*
X50800000Y-36195000D03*
D10*
X58420000Y-31115000D03*
X50800000Y-33655000D03*
X58420000Y-33655000D03*
D11*
X50800000Y-31115000D03*
D10*
X58420000Y-26035000D03*
X50800000Y-28575000D03*
X58420000Y-28575000D03*
D11*
X50800000Y-26035000D03*
D10*
X58420000Y-20955000D03*
X50800000Y-23495000D03*
X58420000Y-23495000D03*
D11*
X50800000Y-20955000D03*
D10*
X58420000Y-15875000D03*
X50800000Y-18415000D03*
X58420000Y-18415000D03*
D11*
X50800000Y-15875000D03*
D10*
X58420000Y-10795000D03*
X50800000Y-13335000D03*
X58420000Y-13335000D03*
D11*
X50800000Y-10795000D03*
D10*
X58420000Y-5715000D03*
X50800000Y-8255000D03*
X58420000Y-8255000D03*
D11*
X50800000Y-5715000D03*
D10*
X12700000Y-67945000D03*
X10160000Y-60325000D03*
X10160000Y-67945000D03*
D11*
X12700000Y-60325000D03*
D10*
X17780000Y-67945000D03*
X15240000Y-60325000D03*
X15240000Y-67945000D03*
D11*
X17780000Y-60325000D03*
D10*
X22860000Y-67945000D03*
X20320000Y-60325000D03*
X20320000Y-67945000D03*
D11*
X22860000Y-60325000D03*
D10*
X27940000Y-67945000D03*
X25400000Y-60325000D03*
X25400000Y-67945000D03*
D11*
X27940000Y-60325000D03*
D10*
X33020000Y-67945000D03*
X30480000Y-60325000D03*
X30480000Y-67945000D03*
D11*
X33020000Y-60325000D03*
D10*
X38100000Y-67945000D03*
X35560000Y-60325000D03*
X35560000Y-67945000D03*
D11*
X38100000Y-60325000D03*
D10*
X25400000Y-83820000D03*
X22860000Y-76200000D03*
X22860000Y-83820000D03*
D11*
X25400000Y-76200000D03*
D10*
X30480000Y-83820000D03*
X27940000Y-76200000D03*
X27940000Y-83820000D03*
D11*
X30480000Y-76200000D03*
D10*
X35560000Y-83820000D03*
X33020000Y-76200000D03*
X33020000Y-83820000D03*
D11*
X35560000Y-76200000D03*
D10*
X12700000Y-83820000D03*
X7620000Y-76200000D03*
X10160000Y-83820000D03*
X10160000Y-76200000D03*
X7620000Y-83820000D03*
D11*
X12700000Y-76200000D03*
D10*
X20320000Y-83820000D03*
X15240000Y-76200000D03*
X17780000Y-83820000D03*
X17780000Y-76200000D03*
X15240000Y-83820000D03*
D11*
X20320000Y-76200000D03*
G04 #@! TA.AperFunction,SMDPad,CuDef*
G36*
G01*
X25685000Y-53737500D02*
X25685000Y-54212500D01*
G75*
G02*
X25447500Y-54450000I-237500J0D01*
G01*
X24872500Y-54450000D01*
G75*
G02*
X24635000Y-54212500I0J237500D01*
G01*
X24635000Y-53737500D01*
G75*
G02*
X24872500Y-53500000I237500J0D01*
G01*
X25447500Y-53500000D01*
G75*
G02*
X25685000Y-53737500I0J-237500D01*
G01*
G37*
G04 #@! TD.AperFunction*
G04 #@! TA.AperFunction,SMDPad,CuDef*
G36*
G01*
X27435000Y-53737500D02*
X27435000Y-54212500D01*
G75*
G02*
X27197500Y-54450000I-237500J0D01*
G01*
X26622500Y-54450000D01*
G75*
G02*
X26385000Y-54212500I0J237500D01*
G01*
X26385000Y-53737500D01*
G75*
G02*
X26622500Y-53500000I237500J0D01*
G01*
X27197500Y-53500000D01*
G75*
G02*
X27435000Y-53737500I0J-237500D01*
G01*
G37*
G04 #@! TD.AperFunction*
G04 #@! TA.AperFunction,SMDPad,CuDef*
G36*
G01*
X25685000Y-51197500D02*
X25685000Y-51672500D01*
G75*
G02*
X25447500Y-51910000I-237500J0D01*
G01*
X24872500Y-51910000D01*
G75*
G02*
X24635000Y-51672500I0J237500D01*
G01*
X24635000Y-51197500D01*
G75*
G02*
X24872500Y-50960000I237500J0D01*
G01*
X25447500Y-50960000D01*
G75*
G02*
X25685000Y-51197500I0J-237500D01*
G01*
G37*
G04 #@! TD.AperFunction*
G04 #@! TA.AperFunction,SMDPad,CuDef*
G36*
G01*
X27435000Y-51197500D02*
X27435000Y-51672500D01*
G75*
G02*
X27197500Y-51910000I-237500J0D01*
G01*
X26622500Y-51910000D01*
G75*
G02*
X26385000Y-51672500I0J237500D01*
G01*
X26385000Y-51197500D01*
G75*
G02*
X26622500Y-50960000I237500J0D01*
G01*
X27197500Y-50960000D01*
G75*
G02*
X27435000Y-51197500I0J-237500D01*
G01*
G37*
G04 #@! TD.AperFunction*
G04 #@! TA.AperFunction,SMDPad,CuDef*
G36*
G01*
X25685000Y-46117500D02*
X25685000Y-46592500D01*
G75*
G02*
X25447500Y-46830000I-237500J0D01*
G01*
X24872500Y-46830000D01*
G75*
G02*
X24635000Y-46592500I0J237500D01*
G01*
X24635000Y-46117500D01*
G75*
G02*
X24872500Y-45880000I237500J0D01*
G01*
X25447500Y-45880000D01*
G75*
G02*
X25685000Y-46117500I0J-237500D01*
G01*
G37*
G04 #@! TD.AperFunction*
G04 #@! TA.AperFunction,SMDPad,CuDef*
G36*
G01*
X27435000Y-46117500D02*
X27435000Y-46592500D01*
G75*
G02*
X27197500Y-46830000I-237500J0D01*
G01*
X26622500Y-46830000D01*
G75*
G02*
X26385000Y-46592500I0J237500D01*
G01*
X26385000Y-46117500D01*
G75*
G02*
X26622500Y-45880000I237500J0D01*
G01*
X27197500Y-45880000D01*
G75*
G02*
X27435000Y-46117500I0J-237500D01*
G01*
G37*
G04 #@! TD.AperFunction*
G04 #@! TA.AperFunction,SMDPad,CuDef*
G36*
G01*
X25685000Y-43577500D02*
X25685000Y-44052500D01*
G75*
G02*
X25447500Y-44290000I-237500J0D01*
G01*
X24872500Y-44290000D01*
G75*
G02*
X24635000Y-44052500I0J237500D01*
G01*
X24635000Y-43577500D01*
G75*
G02*
X24872500Y-43340000I237500J0D01*
G01*
X25447500Y-43340000D01*
G75*
G02*
X25685000Y-43577500I0J-237500D01*
G01*
G37*
G04 #@! TD.AperFunction*
G04 #@! TA.AperFunction,SMDPad,CuDef*
G36*
G01*
X27435000Y-43577500D02*
X27435000Y-44052500D01*
G75*
G02*
X27197500Y-44290000I-237500J0D01*
G01*
X26622500Y-44290000D01*
G75*
G02*
X26385000Y-44052500I0J237500D01*
G01*
X26385000Y-43577500D01*
G75*
G02*
X26622500Y-43340000I237500J0D01*
G01*
X27197500Y-43340000D01*
G75*
G02*
X27435000Y-43577500I0J-237500D01*
G01*
G37*
G04 #@! TD.AperFunction*
G04 #@! TA.AperFunction,SMDPad,CuDef*
G36*
G01*
X25685000Y-41037500D02*
X25685000Y-41512500D01*
G75*
G02*
X25447500Y-41750000I-237500J0D01*
G01*
X24872500Y-41750000D01*
G75*
G02*
X24635000Y-41512500I0J237500D01*
G01*
X24635000Y-41037500D01*
G75*
G02*
X24872500Y-40800000I237500J0D01*
G01*
X25447500Y-40800000D01*
G75*
G02*
X25685000Y-41037500I0J-237500D01*
G01*
G37*
G04 #@! TD.AperFunction*
G04 #@! TA.AperFunction,SMDPad,CuDef*
G36*
G01*
X27435000Y-41037500D02*
X27435000Y-41512500D01*
G75*
G02*
X27197500Y-41750000I-237500J0D01*
G01*
X26622500Y-41750000D01*
G75*
G02*
X26385000Y-41512500I0J237500D01*
G01*
X26385000Y-41037500D01*
G75*
G02*
X26622500Y-40800000I237500J0D01*
G01*
X27197500Y-40800000D01*
G75*
G02*
X27435000Y-41037500I0J-237500D01*
G01*
G37*
G04 #@! TD.AperFunction*
G04 #@! TA.AperFunction,SMDPad,CuDef*
G36*
G01*
X25685000Y-38497500D02*
X25685000Y-38972500D01*
G75*
G02*
X25447500Y-39210000I-237500J0D01*
G01*
X24872500Y-39210000D01*
G75*
G02*
X24635000Y-38972500I0J237500D01*
G01*
X24635000Y-38497500D01*
G75*
G02*
X24872500Y-38260000I237500J0D01*
G01*
X25447500Y-38260000D01*
G75*
G02*
X25685000Y-38497500I0J-237500D01*
G01*
G37*
G04 #@! TD.AperFunction*
G04 #@! TA.AperFunction,SMDPad,CuDef*
G36*
G01*
X27435000Y-38497500D02*
X27435000Y-38972500D01*
G75*
G02*
X27197500Y-39210000I-237500J0D01*
G01*
X26622500Y-39210000D01*
G75*
G02*
X26385000Y-38972500I0J237500D01*
G01*
X26385000Y-38497500D01*
G75*
G02*
X26622500Y-38260000I237500J0D01*
G01*
X27197500Y-38260000D01*
G75*
G02*
X27435000Y-38497500I0J-237500D01*
G01*
G37*
G04 #@! TD.AperFunction*
G04 #@! TA.AperFunction,SMDPad,CuDef*
G36*
G01*
X25685000Y-35957500D02*
X25685000Y-36432500D01*
G75*
G02*
X25447500Y-36670000I-237500J0D01*
G01*
X24872500Y-36670000D01*
G75*
G02*
X24635000Y-36432500I0J237500D01*
G01*
X24635000Y-35957500D01*
G75*
G02*
X24872500Y-35720000I237500J0D01*
G01*
X25447500Y-35720000D01*
G75*
G02*
X25685000Y-35957500I0J-237500D01*
G01*
G37*
G04 #@! TD.AperFunction*
G04 #@! TA.AperFunction,SMDPad,CuDef*
G36*
G01*
X27435000Y-35957500D02*
X27435000Y-36432500D01*
G75*
G02*
X27197500Y-36670000I-237500J0D01*
G01*
X26622500Y-36670000D01*
G75*
G02*
X26385000Y-36432500I0J237500D01*
G01*
X26385000Y-35957500D01*
G75*
G02*
X26622500Y-35720000I237500J0D01*
G01*
X27197500Y-35720000D01*
G75*
G02*
X27435000Y-35957500I0J-237500D01*
G01*
G37*
G04 #@! TD.AperFunction*
G04 #@! TA.AperFunction,SMDPad,CuDef*
G36*
G01*
X25685000Y-28337500D02*
X25685000Y-28812500D01*
G75*
G02*
X25447500Y-29050000I-237500J0D01*
G01*
X24872500Y-29050000D01*
G75*
G02*
X24635000Y-28812500I0J237500D01*
G01*
X24635000Y-28337500D01*
G75*
G02*
X24872500Y-28100000I237500J0D01*
G01*
X25447500Y-28100000D01*
G75*
G02*
X25685000Y-28337500I0J-237500D01*
G01*
G37*
G04 #@! TD.AperFunction*
G04 #@! TA.AperFunction,SMDPad,CuDef*
G36*
G01*
X27435000Y-28337500D02*
X27435000Y-28812500D01*
G75*
G02*
X27197500Y-29050000I-237500J0D01*
G01*
X26622500Y-29050000D01*
G75*
G02*
X26385000Y-28812500I0J237500D01*
G01*
X26385000Y-28337500D01*
G75*
G02*
X26622500Y-28100000I237500J0D01*
G01*
X27197500Y-28100000D01*
G75*
G02*
X27435000Y-28337500I0J-237500D01*
G01*
G37*
G04 #@! TD.AperFunction*
G04 #@! TA.AperFunction,SMDPad,CuDef*
G36*
G01*
X25685000Y-25797500D02*
X25685000Y-26272500D01*
G75*
G02*
X25447500Y-26510000I-237500J0D01*
G01*
X24872500Y-26510000D01*
G75*
G02*
X24635000Y-26272500I0J237500D01*
G01*
X24635000Y-25797500D01*
G75*
G02*
X24872500Y-25560000I237500J0D01*
G01*
X25447500Y-25560000D01*
G75*
G02*
X25685000Y-25797500I0J-237500D01*
G01*
G37*
G04 #@! TD.AperFunction*
G04 #@! TA.AperFunction,SMDPad,CuDef*
G36*
G01*
X27435000Y-25797500D02*
X27435000Y-26272500D01*
G75*
G02*
X27197500Y-26510000I-237500J0D01*
G01*
X26622500Y-26510000D01*
G75*
G02*
X26385000Y-26272500I0J237500D01*
G01*
X26385000Y-25797500D01*
G75*
G02*
X26622500Y-25560000I237500J0D01*
G01*
X27197500Y-25560000D01*
G75*
G02*
X27435000Y-25797500I0J-237500D01*
G01*
G37*
G04 #@! TD.AperFunction*
G04 #@! TA.AperFunction,SMDPad,CuDef*
G36*
G01*
X25685000Y-23257500D02*
X25685000Y-23732500D01*
G75*
G02*
X25447500Y-23970000I-237500J0D01*
G01*
X24872500Y-23970000D01*
G75*
G02*
X24635000Y-23732500I0J237500D01*
G01*
X24635000Y-23257500D01*
G75*
G02*
X24872500Y-23020000I237500J0D01*
G01*
X25447500Y-23020000D01*
G75*
G02*
X25685000Y-23257500I0J-237500D01*
G01*
G37*
G04 #@! TD.AperFunction*
G04 #@! TA.AperFunction,SMDPad,CuDef*
G36*
G01*
X27435000Y-23257500D02*
X27435000Y-23732500D01*
G75*
G02*
X27197500Y-23970000I-237500J0D01*
G01*
X26622500Y-23970000D01*
G75*
G02*
X26385000Y-23732500I0J237500D01*
G01*
X26385000Y-23257500D01*
G75*
G02*
X26622500Y-23020000I237500J0D01*
G01*
X27197500Y-23020000D01*
G75*
G02*
X27435000Y-23257500I0J-237500D01*
G01*
G37*
G04 #@! TD.AperFunction*
G04 #@! TA.AperFunction,SMDPad,CuDef*
G36*
G01*
X25685000Y-20717500D02*
X25685000Y-21192500D01*
G75*
G02*
X25447500Y-21430000I-237500J0D01*
G01*
X24872500Y-21430000D01*
G75*
G02*
X24635000Y-21192500I0J237500D01*
G01*
X24635000Y-20717500D01*
G75*
G02*
X24872500Y-20480000I237500J0D01*
G01*
X25447500Y-20480000D01*
G75*
G02*
X25685000Y-20717500I0J-237500D01*
G01*
G37*
G04 #@! TD.AperFunction*
G04 #@! TA.AperFunction,SMDPad,CuDef*
G36*
G01*
X27435000Y-20717500D02*
X27435000Y-21192500D01*
G75*
G02*
X27197500Y-21430000I-237500J0D01*
G01*
X26622500Y-21430000D01*
G75*
G02*
X26385000Y-21192500I0J237500D01*
G01*
X26385000Y-20717500D01*
G75*
G02*
X26622500Y-20480000I237500J0D01*
G01*
X27197500Y-20480000D01*
G75*
G02*
X27435000Y-20717500I0J-237500D01*
G01*
G37*
G04 #@! TD.AperFunction*
G04 #@! TA.AperFunction,SMDPad,CuDef*
G36*
G01*
X25685000Y-18177500D02*
X25685000Y-18652500D01*
G75*
G02*
X25447500Y-18890000I-237500J0D01*
G01*
X24872500Y-18890000D01*
G75*
G02*
X24635000Y-18652500I0J237500D01*
G01*
X24635000Y-18177500D01*
G75*
G02*
X24872500Y-17940000I237500J0D01*
G01*
X25447500Y-17940000D01*
G75*
G02*
X25685000Y-18177500I0J-237500D01*
G01*
G37*
G04 #@! TD.AperFunction*
G04 #@! TA.AperFunction,SMDPad,CuDef*
G36*
G01*
X27435000Y-18177500D02*
X27435000Y-18652500D01*
G75*
G02*
X27197500Y-18890000I-237500J0D01*
G01*
X26622500Y-18890000D01*
G75*
G02*
X26385000Y-18652500I0J237500D01*
G01*
X26385000Y-18177500D01*
G75*
G02*
X26622500Y-17940000I237500J0D01*
G01*
X27197500Y-17940000D01*
G75*
G02*
X27435000Y-18177500I0J-237500D01*
G01*
G37*
G04 #@! TD.AperFunction*
G04 #@! TA.AperFunction,SMDPad,CuDef*
G36*
G01*
X25685000Y-15637500D02*
X25685000Y-16112500D01*
G75*
G02*
X25447500Y-16350000I-237500J0D01*
G01*
X24872500Y-16350000D01*
G75*
G02*
X24635000Y-16112500I0J237500D01*
G01*
X24635000Y-15637500D01*
G75*
G02*
X24872500Y-15400000I237500J0D01*
G01*
X25447500Y-15400000D01*
G75*
G02*
X25685000Y-15637500I0J-237500D01*
G01*
G37*
G04 #@! TD.AperFunction*
G04 #@! TA.AperFunction,SMDPad,CuDef*
G36*
G01*
X27435000Y-15637500D02*
X27435000Y-16112500D01*
G75*
G02*
X27197500Y-16350000I-237500J0D01*
G01*
X26622500Y-16350000D01*
G75*
G02*
X26385000Y-16112500I0J237500D01*
G01*
X26385000Y-15637500D01*
G75*
G02*
X26622500Y-15400000I237500J0D01*
G01*
X27197500Y-15400000D01*
G75*
G02*
X27435000Y-15637500I0J-237500D01*
G01*
G37*
G04 #@! TD.AperFunction*
G04 #@! TA.AperFunction,SMDPad,CuDef*
G36*
G01*
X25685000Y-13097500D02*
X25685000Y-13572500D01*
G75*
G02*
X25447500Y-13810000I-237500J0D01*
G01*
X24872500Y-13810000D01*
G75*
G02*
X24635000Y-13572500I0J237500D01*
G01*
X24635000Y-13097500D01*
G75*
G02*
X24872500Y-12860000I237500J0D01*
G01*
X25447500Y-12860000D01*
G75*
G02*
X25685000Y-13097500I0J-237500D01*
G01*
G37*
G04 #@! TD.AperFunction*
G04 #@! TA.AperFunction,SMDPad,CuDef*
G36*
G01*
X27435000Y-13097500D02*
X27435000Y-13572500D01*
G75*
G02*
X27197500Y-13810000I-237500J0D01*
G01*
X26622500Y-13810000D01*
G75*
G02*
X26385000Y-13572500I0J237500D01*
G01*
X26385000Y-13097500D01*
G75*
G02*
X26622500Y-12860000I237500J0D01*
G01*
X27197500Y-12860000D01*
G75*
G02*
X27435000Y-13097500I0J-237500D01*
G01*
G37*
G04 #@! TD.AperFunction*
G04 #@! TA.AperFunction,SMDPad,CuDef*
G36*
G01*
X25685000Y-10557500D02*
X25685000Y-11032500D01*
G75*
G02*
X25447500Y-11270000I-237500J0D01*
G01*
X24872500Y-11270000D01*
G75*
G02*
X24635000Y-11032500I0J237500D01*
G01*
X24635000Y-10557500D01*
G75*
G02*
X24872500Y-10320000I237500J0D01*
G01*
X25447500Y-10320000D01*
G75*
G02*
X25685000Y-10557500I0J-237500D01*
G01*
G37*
G04 #@! TD.AperFunction*
G04 #@! TA.AperFunction,SMDPad,CuDef*
G36*
G01*
X27435000Y-10557500D02*
X27435000Y-11032500D01*
G75*
G02*
X27197500Y-11270000I-237500J0D01*
G01*
X26622500Y-11270000D01*
G75*
G02*
X26385000Y-11032500I0J237500D01*
G01*
X26385000Y-10557500D01*
G75*
G02*
X26622500Y-10320000I237500J0D01*
G01*
X27197500Y-10320000D01*
G75*
G02*
X27435000Y-10557500I0J-237500D01*
G01*
G37*
G04 #@! TD.AperFunction*
G04 #@! TA.AperFunction,SMDPad,CuDef*
G36*
G01*
X25685000Y-8017500D02*
X25685000Y-8492500D01*
G75*
G02*
X25447500Y-8730000I-237500J0D01*
G01*
X24872500Y-8730000D01*
G75*
G02*
X24635000Y-8492500I0J237500D01*
G01*
X24635000Y-8017500D01*
G75*
G02*
X24872500Y-7780000I237500J0D01*
G01*
X25447500Y-7780000D01*
G75*
G02*
X25685000Y-8017500I0J-237500D01*
G01*
G37*
G04 #@! TD.AperFunction*
G04 #@! TA.AperFunction,SMDPad,CuDef*
G36*
G01*
X27435000Y-8017500D02*
X27435000Y-8492500D01*
G75*
G02*
X27197500Y-8730000I-237500J0D01*
G01*
X26622500Y-8730000D01*
G75*
G02*
X26385000Y-8492500I0J237500D01*
G01*
X26385000Y-8017500D01*
G75*
G02*
X26622500Y-7780000I237500J0D01*
G01*
X27197500Y-7780000D01*
G75*
G02*
X27435000Y-8017500I0J-237500D01*
G01*
G37*
G04 #@! TD.AperFunction*
D10*
X10160000Y-70485000D03*
D14*
X7620000Y-70485000D03*
D10*
X15240000Y-70485000D03*
D14*
X12700000Y-70485000D03*
D10*
X20320000Y-70485000D03*
D14*
X17780000Y-70485000D03*
D10*
X25400000Y-70485000D03*
D14*
X22860000Y-70485000D03*
D10*
X30480000Y-70485000D03*
D14*
X27940000Y-70485000D03*
D10*
X35560000Y-70485000D03*
D14*
X33020000Y-70485000D03*
G04 #@! TA.AperFunction,SMDPad,CuDef*
G36*
G01*
X14890000Y-29607500D02*
X14890000Y-30082500D01*
G75*
G02*
X14652500Y-30320000I-237500J0D01*
G01*
X14077500Y-30320000D01*
G75*
G02*
X13840000Y-30082500I0J237500D01*
G01*
X13840000Y-29607500D01*
G75*
G02*
X14077500Y-29370000I237500J0D01*
G01*
X14652500Y-29370000D01*
G75*
G02*
X14890000Y-29607500I0J-237500D01*
G01*
G37*
G04 #@! TD.AperFunction*
G04 #@! TA.AperFunction,SMDPad,CuDef*
G36*
G01*
X16640000Y-29607500D02*
X16640000Y-30082500D01*
G75*
G02*
X16402500Y-30320000I-237500J0D01*
G01*
X15827500Y-30320000D01*
G75*
G02*
X15590000Y-30082500I0J237500D01*
G01*
X15590000Y-29607500D01*
G75*
G02*
X15827500Y-29370000I237500J0D01*
G01*
X16402500Y-29370000D01*
G75*
G02*
X16640000Y-29607500I0J-237500D01*
G01*
G37*
G04 #@! TD.AperFunction*
G04 #@! TA.AperFunction,SMDPad,CuDef*
G36*
G01*
X14890000Y-24527500D02*
X14890000Y-25002500D01*
G75*
G02*
X14652500Y-25240000I-237500J0D01*
G01*
X14077500Y-25240000D01*
G75*
G02*
X13840000Y-25002500I0J237500D01*
G01*
X13840000Y-24527500D01*
G75*
G02*
X14077500Y-24290000I237500J0D01*
G01*
X14652500Y-24290000D01*
G75*
G02*
X14890000Y-24527500I0J-237500D01*
G01*
G37*
G04 #@! TD.AperFunction*
G04 #@! TA.AperFunction,SMDPad,CuDef*
G36*
G01*
X16640000Y-24527500D02*
X16640000Y-25002500D01*
G75*
G02*
X16402500Y-25240000I-237500J0D01*
G01*
X15827500Y-25240000D01*
G75*
G02*
X15590000Y-25002500I0J237500D01*
G01*
X15590000Y-24527500D01*
G75*
G02*
X15827500Y-24290000I237500J0D01*
G01*
X16402500Y-24290000D01*
G75*
G02*
X16640000Y-24527500I0J-237500D01*
G01*
G37*
G04 #@! TD.AperFunction*
G04 #@! TA.AperFunction,SMDPad,CuDef*
G36*
G01*
X14890000Y-21987500D02*
X14890000Y-22462500D01*
G75*
G02*
X14652500Y-22700000I-237500J0D01*
G01*
X14077500Y-22700000D01*
G75*
G02*
X13840000Y-22462500I0J237500D01*
G01*
X13840000Y-21987500D01*
G75*
G02*
X14077500Y-21750000I237500J0D01*
G01*
X14652500Y-21750000D01*
G75*
G02*
X14890000Y-21987500I0J-237500D01*
G01*
G37*
G04 #@! TD.AperFunction*
G04 #@! TA.AperFunction,SMDPad,CuDef*
G36*
G01*
X16640000Y-21987500D02*
X16640000Y-22462500D01*
G75*
G02*
X16402500Y-22700000I-237500J0D01*
G01*
X15827500Y-22700000D01*
G75*
G02*
X15590000Y-22462500I0J237500D01*
G01*
X15590000Y-21987500D01*
G75*
G02*
X15827500Y-21750000I237500J0D01*
G01*
X16402500Y-21750000D01*
G75*
G02*
X16640000Y-21987500I0J-237500D01*
G01*
G37*
G04 #@! TD.AperFunction*
G04 #@! TA.AperFunction,SMDPad,CuDef*
G36*
G01*
X67660000Y-47862500D02*
X67660000Y-47387500D01*
G75*
G02*
X67897500Y-47150000I237500J0D01*
G01*
X68472500Y-47150000D01*
G75*
G02*
X68710000Y-47387500I0J-237500D01*
G01*
X68710000Y-47862500D01*
G75*
G02*
X68472500Y-48100000I-237500J0D01*
G01*
X67897500Y-48100000D01*
G75*
G02*
X67660000Y-47862500I0J237500D01*
G01*
G37*
G04 #@! TD.AperFunction*
G04 #@! TA.AperFunction,SMDPad,CuDef*
G36*
G01*
X65910000Y-47862500D02*
X65910000Y-47387500D01*
G75*
G02*
X66147500Y-47150000I237500J0D01*
G01*
X66722500Y-47150000D01*
G75*
G02*
X66960000Y-47387500I0J-237500D01*
G01*
X66960000Y-47862500D01*
G75*
G02*
X66722500Y-48100000I-237500J0D01*
G01*
X66147500Y-48100000D01*
G75*
G02*
X65910000Y-47862500I0J237500D01*
G01*
G37*
G04 #@! TD.AperFunction*
G04 #@! TA.AperFunction,SMDPad,CuDef*
G36*
G01*
X7222500Y-35450000D02*
X6747500Y-35450000D01*
G75*
G02*
X6510000Y-35212500I0J237500D01*
G01*
X6510000Y-34637500D01*
G75*
G02*
X6747500Y-34400000I237500J0D01*
G01*
X7222500Y-34400000D01*
G75*
G02*
X7460000Y-34637500I0J-237500D01*
G01*
X7460000Y-35212500D01*
G75*
G02*
X7222500Y-35450000I-237500J0D01*
G01*
G37*
G04 #@! TD.AperFunction*
G04 #@! TA.AperFunction,SMDPad,CuDef*
G36*
G01*
X7222500Y-37200000D02*
X6747500Y-37200000D01*
G75*
G02*
X6510000Y-36962500I0J237500D01*
G01*
X6510000Y-36387500D01*
G75*
G02*
X6747500Y-36150000I237500J0D01*
G01*
X7222500Y-36150000D01*
G75*
G02*
X7460000Y-36387500I0J-237500D01*
G01*
X7460000Y-36962500D01*
G75*
G02*
X7222500Y-37200000I-237500J0D01*
G01*
G37*
G04 #@! TD.AperFunction*
D10*
X53340000Y0D03*
X50800000Y0D03*
D11*
X40640000Y0D03*
D10*
X45720000Y0D03*
X43180000Y0D03*
X48260000Y0D03*
D11*
X0Y-83820000D03*
D10*
X0Y-81280000D03*
X93980000Y-85090000D03*
X93980000Y-82550000D03*
D11*
X93980000Y-72390000D03*
D10*
X93980000Y-77470000D03*
X93980000Y-74930000D03*
X93980000Y-80010000D03*
X93980000Y-34290000D03*
X93980000Y-29210000D03*
X93980000Y-31750000D03*
D11*
X93980000Y-26670000D03*
D10*
X93980000Y-36830000D03*
X93980000Y-16510000D03*
X93980000Y-11430000D03*
X93980000Y-13970000D03*
D11*
X93980000Y-8890000D03*
D10*
X93980000Y-19050000D03*
X66040000Y-93980000D03*
X68580000Y-93980000D03*
X71120000Y-93980000D03*
X73660000Y-93980000D03*
D11*
X83820000Y-93980000D03*
D10*
X78740000Y-93980000D03*
X81280000Y-93980000D03*
X76200000Y-93980000D03*
X0Y-38100000D03*
X0Y-40640000D03*
D11*
X0Y-50800000D03*
D10*
X0Y-45720000D03*
X0Y-48260000D03*
X0Y-43180000D03*
X0Y-22860000D03*
X0Y-27940000D03*
X0Y-25400000D03*
D11*
X0Y-30480000D03*
D10*
X0Y-20320000D03*
X0Y-17780000D03*
X0Y-15240000D03*
X0Y-12700000D03*
X0Y-10160000D03*
X12700000Y-93980000D03*
X10160000Y-93980000D03*
D11*
X15240000Y-93980000D03*
D10*
X38100000Y-93980000D03*
X35560000Y-93980000D03*
D11*
X40640000Y-93980000D03*
D10*
X52070000Y-93980000D03*
X49530000Y-93980000D03*
D11*
X54610000Y-93980000D03*
D10*
X66040000Y0D03*
X68580000Y0D03*
D11*
X63500000Y0D03*
X0Y-73660000D03*
D10*
X0Y-71120000D03*
X0Y-60960000D03*
X0Y-58420000D03*
D11*
X0Y-63500000D03*
D14*
X41910000Y-26035000D03*
D10*
X41910000Y-28575000D03*
D14*
X67945000Y-12065000D03*
D10*
X67945000Y-14605000D03*
D14*
X15240000Y-88900000D03*
D10*
X12700000Y-88900000D03*
D14*
X38100000Y-88900000D03*
D10*
X35560000Y-88900000D03*
D14*
X52070000Y-88900000D03*
D10*
X49530000Y-88900000D03*
D14*
X63500000Y-6350000D03*
D10*
X66040000Y-6350000D03*
D11*
X22860000Y0D03*
D10*
X27940000Y0D03*
X25400000Y0D03*
X30480000Y0D03*
D11*
X7620000Y0D03*
D10*
X12700000Y0D03*
X10160000Y0D03*
X15240000Y0D03*
D15*
X38197500Y-5715000D03*
X38197500Y-8255000D03*
X38197500Y-10795000D03*
X38197500Y-13335000D03*
X38197500Y-15875000D03*
X38197500Y-18415000D03*
X38197500Y-20955000D03*
X38197500Y-23495000D03*
X38197500Y-26035000D03*
X38197500Y-28575000D03*
X38197500Y-31115000D03*
X38197500Y-33655000D03*
X38197500Y-36195000D03*
X38197500Y-38735000D03*
X38197500Y-41275000D03*
X38197500Y-43815000D03*
X38197500Y-46355000D03*
X38197500Y-48895000D03*
X38197500Y-51435000D03*
X38197500Y-53975000D03*
X22762500Y-53975000D03*
X22762500Y-51435000D03*
X22762500Y-48895000D03*
X22762500Y-46355000D03*
X22762500Y-43815000D03*
X22762500Y-41275000D03*
X22762500Y-38735000D03*
X22762500Y-36195000D03*
X22762500Y-33655000D03*
X22762500Y-31115000D03*
X22762500Y-28575000D03*
X22762500Y-26035000D03*
X22762500Y-23495000D03*
X22762500Y-20955000D03*
X22762500Y-18415000D03*
X22762500Y-15875000D03*
X22762500Y-13335000D03*
X22762500Y-10795000D03*
X22762500Y-8255000D03*
D16*
X22762500Y-5715000D03*
D17*
X92980000Y-92980000D03*
X1000000Y-92980000D03*
X92980000Y-1000000D03*
X1000000Y-1000000D03*
D18*
X15240000Y-12065000D03*
X18415000Y-12065000D03*
D19*
X66040000Y-12700000D03*
D20*
X50800000Y-60960000D03*
D18*
X86995000Y-82550000D03*
X15240000Y-6985000D03*
X8255000Y-33655000D03*
X48260000Y-47625000D03*
X48260000Y-64770000D03*
X16510000Y-36195000D03*
X33655000Y0D03*
X59690000Y-14605000D03*
X46355000Y-13335000D03*
X52705000Y-14605000D03*
X60325000Y-19685000D03*
X60325000Y-24765000D03*
X46355000Y-15875000D03*
X52705000Y-19685000D03*
X46355000Y-18415000D03*
X52705000Y-24765000D03*
X60325000Y-27305000D03*
X46355000Y-20955000D03*
X52705000Y-29845000D03*
X66675000Y-26035000D03*
X46355000Y-23495000D03*
X52705000Y-34925000D03*
X66675000Y-28575000D03*
D21*
X68580000Y0D02*
X66675000Y1905000D01*
X47625000Y1905000D02*
X45720000Y0D01*
X66675000Y1905000D02*
X47625000Y1905000D01*
X32385000Y1905000D02*
X30480000Y0D01*
X47625000Y1905000D02*
X32385000Y1905000D01*
X17145000Y1905000D02*
X15240000Y0D01*
X32385000Y1905000D02*
X17145000Y1905000D01*
X12065000Y-17145000D02*
X13970000Y-17145000D01*
X13970000Y-17145000D02*
X18415000Y-12700000D01*
X18415000Y-12700000D02*
X18415000Y-5080000D01*
X18415000Y-5080000D02*
X19685000Y-3810000D01*
X26670000Y-3810000D02*
X30480000Y0D01*
X19685000Y-3810000D02*
X26670000Y-3810000D01*
X8890000Y-13335000D02*
X13970000Y-13335000D01*
X7620000Y-14605000D02*
X8890000Y-13335000D01*
X13970000Y-13335000D02*
X15240000Y-12065000D01*
X7620000Y-27940000D02*
X7620000Y-14605000D01*
X9525000Y-29845000D02*
X7620000Y-27940000D01*
D22*
X67945000Y-14605000D02*
X70485000Y-14605000D01*
X67945000Y-27305000D02*
X70485000Y-29845000D01*
X67945000Y-14605000D02*
X67945000Y-27305000D01*
X70485000Y-32385000D02*
X70485000Y-29845000D01*
X70485000Y-29845000D02*
X73025000Y-29845000D01*
X66040000Y-6350000D02*
X66040000Y-12700000D01*
X66040000Y-12700000D02*
X67945000Y-14605000D01*
X80010000Y-76061370D02*
X78601370Y-77470000D01*
X80010000Y-74930000D02*
X80010000Y-76061370D01*
X44450000Y-75250002D02*
X44450000Y-74930000D01*
X46669998Y-77470000D02*
X44450000Y-75250002D01*
X50800000Y-64770000D02*
X50800000Y-60960000D01*
X10160000Y-76200000D02*
X10160000Y-77331370D01*
X10160000Y-77331370D02*
X11568630Y-78740000D01*
X44450000Y-71120000D02*
X44767500Y-70802500D01*
X36830000Y-78740000D02*
X44767500Y-70802500D01*
X44450000Y-74930000D02*
X44450000Y-71120000D01*
X44767500Y-70802500D02*
X50800000Y-64770000D01*
X53201370Y-77470000D02*
X52070000Y-77470000D01*
X54610000Y-76061370D02*
X53201370Y-77470000D01*
X54610000Y-74930000D02*
X54610000Y-76061370D01*
X58281370Y-77470000D02*
X57150000Y-77470000D01*
X59690000Y-76061370D02*
X58281370Y-77470000D01*
X59690000Y-74930000D02*
X59690000Y-76061370D01*
X57150000Y-77470000D02*
X52070000Y-77470000D01*
X63361370Y-77470000D02*
X62230000Y-77470000D01*
X64770000Y-76061370D02*
X63361370Y-77470000D01*
X64770000Y-74930000D02*
X64770000Y-76061370D01*
X62230000Y-77470000D02*
X57150000Y-77470000D01*
X68441370Y-77470000D02*
X67310000Y-77470000D01*
X69850000Y-76061370D02*
X68441370Y-77470000D01*
X69850000Y-74930000D02*
X69850000Y-76061370D01*
X67310000Y-77470000D02*
X62230000Y-77470000D01*
X74930000Y-76200000D02*
X73660000Y-77470000D01*
X74930000Y-74930000D02*
X74930000Y-76200000D01*
X78601370Y-77470000D02*
X73660000Y-77470000D01*
X73660000Y-77470000D02*
X67310000Y-77470000D01*
X49530000Y-76200000D02*
X48260000Y-77470000D01*
X49530000Y-74930000D02*
X49530000Y-76200000D01*
X52070000Y-77470000D02*
X48260000Y-77470000D01*
X48260000Y-77470000D02*
X46669998Y-77470000D01*
X17780000Y-77470000D02*
X19050000Y-78740000D01*
X17780000Y-76200000D02*
X17780000Y-77470000D01*
X11568630Y-78740000D02*
X19050000Y-78740000D01*
X22860000Y-77470000D02*
X24130000Y-78740000D01*
X22860000Y-76200000D02*
X22860000Y-77470000D01*
X19050000Y-78740000D02*
X24130000Y-78740000D01*
X27940000Y-77470000D02*
X29210000Y-78740000D01*
X27940000Y-76200000D02*
X27940000Y-77470000D01*
X24130000Y-78740000D02*
X29210000Y-78740000D01*
X33020000Y-76200000D02*
X33020000Y-77470000D01*
X29210000Y-78740000D02*
X34290000Y-78740000D01*
X33020000Y-77470000D02*
X34290000Y-78740000D01*
X34290000Y-78740000D02*
X36830000Y-78740000D01*
X10160000Y-60325000D02*
X10160000Y-61595000D01*
X10160000Y-61595000D02*
X11430000Y-62865000D01*
X48895000Y-62865000D02*
X50800000Y-60960000D01*
X16648630Y-62865000D02*
X17145000Y-62865000D01*
X15240000Y-61456370D02*
X16648630Y-62865000D01*
X15240000Y-60325000D02*
X15240000Y-61456370D01*
X11430000Y-62865000D02*
X17145000Y-62865000D01*
X20320000Y-61595000D02*
X21590000Y-62865000D01*
X20320000Y-60325000D02*
X20320000Y-61595000D01*
X17145000Y-62865000D02*
X21590000Y-62865000D01*
X25400000Y-61595000D02*
X26670000Y-62865000D01*
X25400000Y-60325000D02*
X25400000Y-61595000D01*
X21590000Y-62865000D02*
X26670000Y-62865000D01*
X30480000Y-61595000D02*
X31750000Y-62865000D01*
X30480000Y-60325000D02*
X30480000Y-61595000D01*
X26670000Y-62865000D02*
X31750000Y-62865000D01*
X35560000Y-60325000D02*
X35560000Y-61595000D01*
X31750000Y-62865000D02*
X36830000Y-62865000D01*
X35560000Y-61595000D02*
X36830000Y-62865000D01*
X36830000Y-62865000D02*
X48895000Y-62865000D01*
X80506370Y-29845000D02*
X83185000Y-27166370D01*
X83185000Y-27166370D02*
X83185000Y-26035000D01*
X73025000Y-29845000D02*
X80506370Y-29845000D01*
X83185000Y-26035000D02*
X83185000Y-22225000D01*
X83185000Y-22225000D02*
X83185000Y-18415000D01*
X83185000Y-18415000D02*
X83185000Y-14605000D01*
X83185000Y-14605000D02*
X83185000Y-10795000D01*
X83185000Y-10795000D02*
X83185000Y-6985000D01*
X52070000Y-91440000D02*
X54610000Y-93980000D01*
X52070000Y-88900000D02*
X52070000Y-91440000D01*
X52070000Y-88900000D02*
X54610000Y-86360000D01*
X83185000Y-86360000D02*
X86995000Y-82550000D01*
X54610000Y-86360000D02*
X83185000Y-86360000D01*
X49530000Y-93980000D02*
X49530000Y-88900000D01*
X44450000Y-83820000D02*
X49530000Y-88900000D01*
X44450000Y-82550000D02*
X44450000Y-83820000D01*
X49530000Y-82550000D02*
X49530000Y-88900000D01*
X49530000Y-88900000D02*
X49530000Y-87630000D01*
X78105000Y-84455000D02*
X80010000Y-82550000D01*
X52705000Y-84455000D02*
X54610000Y-82550000D01*
X49530000Y-87630000D02*
X52705000Y-84455000D01*
X74930000Y-82550000D02*
X73025000Y-84455000D01*
X73025000Y-84455000D02*
X78105000Y-84455000D01*
X67945000Y-84455000D02*
X66675000Y-84455000D01*
X69850000Y-82550000D02*
X67945000Y-84455000D01*
X66675000Y-84455000D02*
X73025000Y-84455000D01*
X62865000Y-84455000D02*
X62230000Y-84455000D01*
X64770000Y-82550000D02*
X62865000Y-84455000D01*
X62230000Y-84455000D02*
X66675000Y-84455000D01*
X59690000Y-82550000D02*
X57785000Y-84455000D01*
X52705000Y-84455000D02*
X57785000Y-84455000D01*
X57785000Y-84455000D02*
X62230000Y-84455000D01*
X22860000Y-93980000D02*
X27940000Y-88900000D01*
X35560000Y-93980000D02*
X35560000Y-88900000D01*
X33020000Y-86360000D02*
X35560000Y-88900000D01*
X33020000Y-83820000D02*
X33020000Y-86360000D01*
X27940000Y-83820000D02*
X27940000Y-86360000D01*
X30480000Y-88900000D02*
X35560000Y-88900000D01*
X27940000Y-86360000D02*
X30480000Y-88900000D01*
X22860000Y-83820000D02*
X22860000Y-86360000D01*
X22860000Y-86360000D02*
X25400000Y-88900000D01*
X25400000Y-88900000D02*
X30480000Y-88900000D01*
X15240000Y-93980000D02*
X15240000Y-88900000D01*
X15240000Y-88900000D02*
X12700000Y-86360000D01*
X0Y-73660000D02*
X2540000Y-76200000D01*
X2540000Y-76200000D02*
X2540000Y-83820000D01*
X2540000Y-83820000D02*
X5080000Y-86360000D01*
X12700000Y-86360000D02*
X5080000Y-86360000D01*
X0Y-83820000D02*
X2540000Y-83820000D01*
D23*
X10795000Y-1905000D02*
X12700000Y0D01*
X12065000Y-9525000D02*
X10795000Y-8255000D01*
X10795000Y-8255000D02*
X10795000Y-1905000D01*
X17145000Y-2540000D02*
X25400000Y-2540000D01*
X16510000Y-12700000D02*
X16510000Y-3175000D01*
X10795000Y-46355000D02*
X10795000Y-16510000D01*
X10795000Y-16510000D02*
X11430000Y-15875000D01*
X16510000Y-3175000D02*
X17145000Y-2540000D01*
X12065000Y-47625000D02*
X10795000Y-46355000D01*
X11430000Y-15875000D02*
X13335000Y-15875000D01*
X25400000Y-2540000D02*
X27940000Y0D01*
X13335000Y-15875000D02*
X16510000Y-12700000D01*
X12065000Y-6985000D02*
X15240000Y-6985000D01*
D22*
X1131370Y-71120000D02*
X5080000Y-75068630D01*
X0Y-71120000D02*
X1131370Y-71120000D01*
X5080000Y-75068630D02*
X5080000Y-78740000D01*
X5080000Y-78740000D02*
X7620000Y-81280000D01*
X17780000Y-81280000D02*
X20320000Y-83820000D01*
X12700000Y-81280000D02*
X15240000Y-83820000D01*
X12700000Y-81280000D02*
X17780000Y-81280000D01*
X7620000Y-81280000D02*
X12700000Y-81280000D01*
D23*
X6985000Y-34925000D02*
X9525000Y-34925000D01*
X20320000Y-76200000D02*
X17780000Y-73660000D01*
X17780000Y-73660000D02*
X5715000Y-73660000D01*
X5715000Y-73660000D02*
X4445000Y-72390000D01*
X4445000Y-39215000D02*
X6985000Y-36675000D01*
X4445000Y-72390000D02*
X4445000Y-39215000D01*
X5528599Y-74110009D02*
X3810000Y-72391410D01*
X12700000Y-76200000D02*
X10610009Y-74110009D01*
X10610009Y-74110009D02*
X5528599Y-74110009D01*
X3810000Y-72391410D02*
X3810000Y-71755000D01*
X3810000Y-71755000D02*
X3810000Y-36195000D01*
X3810000Y-36195000D02*
X6350000Y-33655000D01*
X6350000Y-33655000D02*
X8255000Y-33655000D01*
X68185000Y-47625000D02*
X70485000Y-47625000D01*
X66435000Y-47625000D02*
X48895000Y-47625000D01*
X48895000Y-47625000D02*
X48260000Y-47625000D01*
X48260000Y-64770000D02*
X36830000Y-76200000D01*
X36830000Y-76200000D02*
X35560000Y-76200000D01*
X12065000Y-22225000D02*
X14365000Y-22225000D01*
X30480000Y-76200000D02*
X26670000Y-72390000D01*
X26670000Y-72390000D02*
X6985000Y-72390000D01*
X6985000Y-72390000D02*
X5715000Y-71120000D01*
X5715000Y-71120000D02*
X5715000Y-60960000D01*
X5715000Y-60960000D02*
X8255000Y-58420000D01*
X16115000Y-22225000D02*
X16510000Y-22225000D01*
X16510000Y-22225000D02*
X19050000Y-24765000D01*
X19050000Y-24765000D02*
X19050000Y-56515000D01*
X17145000Y-58420000D02*
X8255000Y-58420000D01*
X19050000Y-56515000D02*
X17145000Y-58420000D01*
X12065000Y-24765000D02*
X14365000Y-24765000D01*
X25400000Y-76200000D02*
X22225000Y-73025000D01*
X22225000Y-73025000D02*
X6350000Y-73025000D01*
X6350000Y-73025000D02*
X5080000Y-71755000D01*
X5080000Y-71755000D02*
X5080000Y-60960000D01*
X5264991Y-60773599D02*
X8253590Y-57785000D01*
X5080000Y-60960000D02*
X5264990Y-60775010D01*
X5264990Y-60775010D02*
X5264991Y-60773599D01*
X8253590Y-57785000D02*
X16510000Y-57785000D01*
X16510000Y-57785000D02*
X18415000Y-55880000D01*
X18415000Y-55880000D02*
X18415000Y-26670000D01*
X18415000Y-26670000D02*
X16510000Y-24765000D01*
X16510000Y-24765000D02*
X16115000Y-24765000D01*
X12065000Y-29845000D02*
X14365000Y-29845000D01*
X16510000Y-30240000D02*
X16115000Y-29845000D01*
X16510000Y-36195000D02*
X16510000Y-30240000D01*
X61595000Y-20320000D02*
X61595000Y-5080000D01*
X58420000Y-23495000D02*
X61595000Y-20320000D01*
X61595000Y-5080000D02*
X62865000Y-3810000D01*
X62865000Y-3810000D02*
X85090000Y-3810000D01*
X85090000Y-3810000D02*
X90805000Y-9525000D01*
X90805000Y-13335000D02*
X93980000Y-16510000D01*
X90805000Y-9525000D02*
X90805000Y-13335000D01*
X58420000Y-13335000D02*
X60325000Y-11430000D01*
X60325000Y-11430000D02*
X60325000Y-3810000D01*
X60325000Y-3810000D02*
X61595000Y-2540000D01*
X61595000Y-2540000D02*
X86360000Y-2540000D01*
X86360000Y-2540000D02*
X92075000Y-8255000D01*
X92075000Y-9525000D02*
X93980000Y-11430000D01*
X92075000Y-8255000D02*
X92075000Y-9525000D01*
X58420000Y-18415000D02*
X60960000Y-15875000D01*
X60960000Y-15875000D02*
X60960000Y-4445000D01*
X60960000Y-4445000D02*
X62230000Y-3175000D01*
X62230000Y-3175000D02*
X85725000Y-3175000D01*
X85725000Y-3175000D02*
X91440000Y-8890000D01*
X91440000Y-11430000D02*
X93980000Y-13970000D01*
X91440000Y-8890000D02*
X91440000Y-11430000D01*
X58420000Y-8255000D02*
X59690000Y-6985000D01*
X59690000Y-6985000D02*
X59690000Y-3175000D01*
X59690000Y-3175000D02*
X60960000Y-1905000D01*
X60960000Y-1905000D02*
X86995000Y-1905000D01*
X86995000Y-1905000D02*
X93980000Y-8890000D01*
X90170000Y-15240000D02*
X93980000Y-19050000D01*
X90170000Y-10160000D02*
X90170000Y-15240000D01*
X84455000Y-4445000D02*
X90170000Y-10160000D01*
X60325000Y-28575000D02*
X62230000Y-26670000D01*
X62230000Y-26670000D02*
X62230000Y-5715000D01*
X58420000Y-28575000D02*
X60325000Y-28575000D01*
X62230000Y-5715000D02*
X63500000Y-4445000D01*
X63500000Y-4445000D02*
X84455000Y-4445000D01*
X79375000Y-48895000D02*
X93980000Y-34290000D01*
X58420000Y-48895000D02*
X79375000Y-48895000D01*
X84455000Y-38735000D02*
X93980000Y-29210000D01*
X58420000Y-38735000D02*
X84455000Y-38735000D01*
X81915000Y-43815000D02*
X93980000Y-31750000D01*
X58420000Y-43815000D02*
X81915000Y-43815000D01*
X86995000Y-33655000D02*
X93980000Y-26670000D01*
X58420000Y-33655000D02*
X86995000Y-33655000D01*
X76835000Y-53975000D02*
X93980000Y-36830000D01*
X58420000Y-53975000D02*
X76835000Y-53975000D01*
X54610000Y-68580000D02*
X59055000Y-73025000D01*
X59055000Y-73025000D02*
X88265000Y-73025000D01*
X88265000Y-73025000D02*
X89535000Y-74295000D01*
X89535000Y-74295000D02*
X89535000Y-80645000D01*
X89535000Y-80645000D02*
X93980000Y-85090000D01*
X63500000Y-72390000D02*
X88900000Y-72390000D01*
X59690000Y-68580000D02*
X63500000Y-72390000D01*
X88900000Y-72390000D02*
X90170000Y-73660000D01*
X90170000Y-73660000D02*
X90170000Y-78740000D01*
X90170000Y-78740000D02*
X93980000Y-82550000D01*
X80010000Y-68580000D02*
X81280000Y-69850000D01*
X91440000Y-69850000D02*
X93980000Y-72390000D01*
X81280000Y-69850000D02*
X91440000Y-69850000D01*
X69850000Y-68580000D02*
X72390000Y-71120000D01*
X72390000Y-71120000D02*
X90170000Y-71120000D01*
X90170000Y-71120000D02*
X91440000Y-72390000D01*
X91440000Y-74930000D02*
X93980000Y-77470000D01*
X91440000Y-72390000D02*
X91440000Y-74930000D01*
X92075000Y-73025000D02*
X93980000Y-74930000D01*
X92075000Y-71755000D02*
X92075000Y-73025000D01*
X90805705Y-70485705D02*
X92075000Y-71755000D01*
X74930000Y-68580000D02*
X76835705Y-70485705D01*
X76835705Y-70485705D02*
X90805705Y-70485705D01*
X64770000Y-68580000D02*
X67945000Y-71755000D01*
X67945000Y-71755000D02*
X89535000Y-71755000D01*
X89535000Y-71755000D02*
X90805000Y-73025000D01*
X90805000Y-76835000D02*
X93980000Y-80010000D01*
X90805000Y-73025000D02*
X90805000Y-76835000D01*
X38197500Y-8255000D02*
X39370000Y-7082500D01*
X39370000Y-7082500D02*
X39370000Y-3810000D01*
X47809990Y-2990010D02*
X50800000Y0D01*
X40189990Y-2990010D02*
X47809990Y-2990010D01*
X39370000Y-3810000D02*
X40189990Y-2990010D01*
X33655000Y0D02*
X33655000Y0D01*
X27940000Y-5715000D02*
X33655000Y0D01*
X22762500Y-5715000D02*
X27940000Y-5715000D01*
X38197500Y-5715000D02*
X38197500Y-3712500D01*
X38197500Y-3712500D02*
X39370000Y-2540000D01*
X45720000Y-2540000D02*
X48260000Y0D01*
X39370000Y-2540000D02*
X45720000Y-2540000D01*
X22762500Y-8255000D02*
X25160000Y-8255000D01*
X36830000Y-9525000D02*
X39370000Y-9525000D01*
X39370000Y-9525000D02*
X43180000Y-5715000D01*
X26910000Y-8255000D02*
X35560000Y-8255000D01*
X43180000Y-5715000D02*
X50800000Y-5715000D01*
X35560000Y-8255000D02*
X36830000Y-9525000D01*
X22762500Y-10795000D02*
X25160000Y-10795000D01*
X36830000Y-12065000D02*
X49530000Y-12065000D01*
X26910000Y-10795000D02*
X35560000Y-10795000D01*
X49530000Y-12065000D02*
X50800000Y-10795000D01*
X35560000Y-10795000D02*
X36830000Y-12065000D01*
X22762500Y-13335000D02*
X25160000Y-13335000D01*
X26910000Y-13335000D02*
X35560000Y-13335000D01*
X35560000Y-13335000D02*
X36830000Y-14605000D01*
X49530000Y-14605000D02*
X50800000Y-15875000D01*
X36830000Y-14605000D02*
X49530000Y-14605000D01*
X22762500Y-15875000D02*
X25160000Y-15875000D01*
X26910000Y-15875000D02*
X35560000Y-15875000D01*
X35560000Y-15875000D02*
X36830000Y-17145000D01*
X46990000Y-17145000D02*
X50800000Y-20955000D01*
X36830000Y-17145000D02*
X46990000Y-17145000D01*
X22762500Y-18415000D02*
X25160000Y-18415000D01*
X36830000Y-19685000D02*
X47625000Y-19685000D01*
X49530000Y-24765000D02*
X50800000Y-26035000D01*
X26910000Y-18415000D02*
X35560000Y-18415000D01*
X35560000Y-18415000D02*
X36830000Y-19685000D01*
X49530000Y-21590000D02*
X49530000Y-24765000D01*
X47625000Y-19685000D02*
X49530000Y-21590000D01*
X22762500Y-20955000D02*
X25160000Y-20955000D01*
X26910000Y-20955000D02*
X35560000Y-20955000D01*
X35560000Y-20955000D02*
X36830000Y-22225000D01*
X36830000Y-22225000D02*
X47625000Y-22225000D01*
X47625000Y-22225000D02*
X48895000Y-23495000D01*
X48895000Y-29210000D02*
X50800000Y-31115000D01*
X48895000Y-23495000D02*
X48895000Y-29210000D01*
X22762500Y-23495000D02*
X25160000Y-23495000D01*
X26910000Y-23495000D02*
X35560000Y-23495000D01*
X35560000Y-23495000D02*
X36830000Y-24765000D01*
X36830000Y-24765000D02*
X46990000Y-24765000D01*
X46990000Y-24765000D02*
X48260000Y-26035000D01*
X48260000Y-33655000D02*
X50800000Y-36195000D01*
X48260000Y-26035000D02*
X48260000Y-33655000D01*
X22762500Y-26035000D02*
X25160000Y-26035000D01*
X26910000Y-26035000D02*
X35560000Y-26035000D01*
X35560000Y-26035000D02*
X36830000Y-27305000D01*
X36830000Y-27305000D02*
X46355000Y-27305000D01*
X46355000Y-27305000D02*
X47625000Y-28575000D01*
X47625000Y-38100000D02*
X50800000Y-41275000D01*
X47625000Y-28575000D02*
X47625000Y-38100000D01*
X22762500Y-28575000D02*
X25160000Y-28575000D01*
X26910000Y-28575000D02*
X35560000Y-28575000D01*
X35560000Y-28575000D02*
X36830000Y-29845000D01*
X36830000Y-29845000D02*
X45720000Y-29845000D01*
X45720000Y-29845000D02*
X46990000Y-31115000D01*
X46990000Y-42545000D02*
X50800000Y-46355000D01*
X46990000Y-31115000D02*
X46990000Y-42545000D01*
X22762500Y-36195000D02*
X25160000Y-36195000D01*
X26910000Y-36195000D02*
X35560000Y-36195000D01*
X35560000Y-36195000D02*
X36830000Y-34925000D01*
X36830000Y-34925000D02*
X36830000Y-33020000D01*
X36830000Y-33020000D02*
X37465000Y-32385000D01*
X37465000Y-32385000D02*
X45085000Y-32385000D01*
X45085000Y-32385000D02*
X46355000Y-33655000D01*
X46355000Y-46990000D02*
X50800000Y-51435000D01*
X46355000Y-33655000D02*
X46355000Y-46990000D01*
X22762500Y-38735000D02*
X25160000Y-38735000D01*
X82550000Y-60960000D02*
X77470000Y-55880000D01*
X26910000Y-38735000D02*
X35560000Y-38735000D01*
X35560000Y-38735000D02*
X36830000Y-40005000D01*
X36830000Y-40005000D02*
X44450000Y-40005000D01*
X44450000Y-40005000D02*
X45720000Y-41275000D01*
X45720000Y-41275000D02*
X45720000Y-51435000D01*
X45720000Y-51435000D02*
X50165000Y-55880000D01*
X50165000Y-55880000D02*
X77470000Y-55880000D01*
X22762500Y-41275000D02*
X25160000Y-41275000D01*
X49530000Y-56515000D02*
X73025000Y-56515000D01*
X73025000Y-56515000D02*
X77470000Y-60960000D01*
X45085000Y-52070000D02*
X49530000Y-56515000D01*
X35560000Y-41275000D02*
X36830000Y-42545000D01*
X36830000Y-42545000D02*
X43815000Y-42545000D01*
X26910000Y-41275000D02*
X35560000Y-41275000D01*
X43815000Y-42545000D02*
X45085000Y-43815000D01*
X45085000Y-43815000D02*
X45085000Y-52070000D01*
X22762500Y-43815000D02*
X25160000Y-43815000D01*
X26910000Y-43815000D02*
X35560000Y-43815000D01*
X35560000Y-43815000D02*
X36830000Y-45085000D01*
X36830000Y-45085000D02*
X43180000Y-45085000D01*
X43180000Y-45085000D02*
X44450000Y-46355000D01*
X44450000Y-46355000D02*
X44450000Y-52705000D01*
X44450000Y-52705000D02*
X48895000Y-57150000D01*
X68580000Y-57150000D02*
X72390000Y-60960000D01*
X48895000Y-57150000D02*
X68580000Y-57150000D01*
X22762500Y-46355000D02*
X25160000Y-46355000D01*
X26910000Y-46355000D02*
X35560000Y-46355000D01*
X35560000Y-46355000D02*
X36830000Y-47625000D01*
X36830000Y-47625000D02*
X42545000Y-47625000D01*
X42545000Y-47625000D02*
X43815000Y-48895000D01*
X43815000Y-48895000D02*
X43815000Y-53340000D01*
X43815000Y-53340000D02*
X48260000Y-57785000D01*
X64135000Y-57785000D02*
X67310000Y-60960000D01*
X48260000Y-57785000D02*
X64135000Y-57785000D01*
X22762500Y-51435000D02*
X25160000Y-51435000D01*
X26910000Y-51435000D02*
X35560000Y-51435000D01*
X35560000Y-51435000D02*
X36830000Y-50165000D01*
X36830000Y-50165000D02*
X41910000Y-50165000D01*
X41910000Y-50165000D02*
X43180000Y-51435000D01*
X43180000Y-51435000D02*
X43180000Y-53975000D01*
X43180000Y-53975000D02*
X47625000Y-58420000D01*
X59690000Y-58420000D02*
X62230000Y-60960000D01*
X47625000Y-58420000D02*
X59690000Y-58420000D01*
X22762500Y-53975000D02*
X25160000Y-53975000D01*
X26910000Y-53975000D02*
X35560000Y-53975000D01*
X35560000Y-53975000D02*
X36830000Y-52705000D01*
X36830000Y-52705000D02*
X41275000Y-52705000D01*
X41275000Y-52705000D02*
X42545000Y-53975000D01*
X42545000Y-53975000D02*
X42545000Y-54610000D01*
X42545000Y-54610000D02*
X46990000Y-59055000D01*
X55245000Y-59055000D02*
X57150000Y-60960000D01*
X46990000Y-59055000D02*
X55245000Y-59055000D01*
X42150000Y-10795000D02*
X46355000Y-10795000D01*
X46355000Y-10795000D02*
X47625000Y-9525000D01*
X47625000Y-9525000D02*
X52705000Y-9525000D01*
X52705000Y-9525000D02*
X57785000Y-14605000D01*
X57785000Y-14605000D02*
X59690000Y-14605000D01*
X42150000Y-13335000D02*
X46355000Y-13335000D01*
X52705000Y-14605000D02*
X57785000Y-19685000D01*
X57785000Y-19685000D02*
X60325000Y-19685000D01*
X57150000Y-24765000D02*
X60325000Y-24765000D01*
X42150000Y-15875000D02*
X46355000Y-15875000D01*
X52705000Y-19685000D02*
X52705000Y-20320000D01*
X52705000Y-20320000D02*
X57150000Y-24765000D01*
X42150000Y-18415000D02*
X46355000Y-18415000D01*
X52705000Y-24765000D02*
X54610000Y-24765000D01*
X54610000Y-24765000D02*
X57150000Y-27305000D01*
X57150000Y-27305000D02*
X60325000Y-27305000D01*
X42150000Y-20955000D02*
X46355000Y-20955000D01*
X52705000Y-29845000D02*
X62865000Y-29845000D01*
X62865000Y-29845000D02*
X66675000Y-26035000D01*
X42150000Y-23495000D02*
X46355000Y-23495000D01*
X52705000Y-34925000D02*
X54610000Y-34925000D01*
X54610000Y-34925000D02*
X57150000Y-32385000D01*
X57150000Y-32385000D02*
X62865000Y-32385000D01*
X62865000Y-32385000D02*
X66675000Y-28575000D01*
X38197500Y-10795000D02*
X40400000Y-10795000D01*
X38197500Y-13335000D02*
X40400000Y-13335000D01*
X38197500Y-15875000D02*
X40400000Y-15875000D01*
X38197500Y-18415000D02*
X40400000Y-18415000D01*
X38197500Y-20955000D02*
X40400000Y-20955000D01*
X38197500Y-23495000D02*
X40400000Y-23495000D01*
M02*
