G04 #@! TF.GenerationSoftware,KiCad,Pcbnew,(5.1.6)-1*
G04 #@! TF.CreationDate,2023-04-05T00:01:16+09:00*
G04 #@! TF.ProjectId,SubPCB,53756250-4342-42e6-9b69-6361645f7063,rev?*
G04 #@! TF.SameCoordinates,Original*
G04 #@! TF.FileFunction,Paste,Top*
G04 #@! TF.FilePolarity,Positive*
%FSLAX46Y46*%
G04 Gerber Fmt 4.6, Leading zero omitted, Abs format (unit mm)*
G04 Created by KiCad (PCBNEW (5.1.6)-1) date 2023-04-05 00:01:16*
%MOMM*%
%LPD*%
G01*
G04 APERTURE LIST*
G04 APERTURE END LIST*
G36*
G01*
X20557500Y-33700000D02*
X20082500Y-33700000D01*
G75*
G02*
X19845000Y-33462500I0J237500D01*
G01*
X19845000Y-32887500D01*
G75*
G02*
X20082500Y-32650000I237500J0D01*
G01*
X20557500Y-32650000D01*
G75*
G02*
X20795000Y-32887500I0J-237500D01*
G01*
X20795000Y-33462500D01*
G75*
G02*
X20557500Y-33700000I-237500J0D01*
G01*
G37*
G36*
G01*
X20557500Y-35450000D02*
X20082500Y-35450000D01*
G75*
G02*
X19845000Y-35212500I0J237500D01*
G01*
X19845000Y-34637500D01*
G75*
G02*
X20082500Y-34400000I237500J0D01*
G01*
X20557500Y-34400000D01*
G75*
G02*
X20795000Y-34637500I0J-237500D01*
G01*
X20795000Y-35212500D01*
G75*
G02*
X20557500Y-35450000I-237500J0D01*
G01*
G37*
G36*
G01*
X19795000Y-7222500D02*
X19795000Y-6747500D01*
G75*
G02*
X20032500Y-6510000I237500J0D01*
G01*
X20607500Y-6510000D01*
G75*
G02*
X20845000Y-6747500I0J-237500D01*
G01*
X20845000Y-7222500D01*
G75*
G02*
X20607500Y-7460000I-237500J0D01*
G01*
X20032500Y-7460000D01*
G75*
G02*
X19795000Y-7222500I0J237500D01*
G01*
G37*
G36*
G01*
X18045000Y-7222500D02*
X18045000Y-6747500D01*
G75*
G02*
X18282500Y-6510000I237500J0D01*
G01*
X18857500Y-6510000D01*
G75*
G02*
X19095000Y-6747500I0J-237500D01*
G01*
X19095000Y-7222500D01*
G75*
G02*
X18857500Y-7460000I-237500J0D01*
G01*
X18282500Y-7460000D01*
G75*
G02*
X18045000Y-7222500I0J237500D01*
G01*
G37*
G36*
G01*
X37702500Y-525000D02*
X37227500Y-525000D01*
G75*
G02*
X36990000Y-287500I0J237500D01*
G01*
X36990000Y287500D01*
G75*
G02*
X37227500Y525000I237500J0D01*
G01*
X37702500Y525000D01*
G75*
G02*
X37940000Y287500I0J-237500D01*
G01*
X37940000Y-287500D01*
G75*
G02*
X37702500Y-525000I-237500J0D01*
G01*
G37*
G36*
G01*
X37702500Y-2275000D02*
X37227500Y-2275000D01*
G75*
G02*
X36990000Y-2037500I0J237500D01*
G01*
X36990000Y-1462500D01*
G75*
G02*
X37227500Y-1225000I237500J0D01*
G01*
X37702500Y-1225000D01*
G75*
G02*
X37940000Y-1462500I0J-237500D01*
G01*
X37940000Y-2037500D01*
G75*
G02*
X37702500Y-2275000I-237500J0D01*
G01*
G37*
G36*
G01*
X60130001Y-87325000D02*
X57979999Y-87325000D01*
G75*
G02*
X57730000Y-87075001I0J249999D01*
G01*
X57730000Y-86049999D01*
G75*
G02*
X57979999Y-85800000I249999J0D01*
G01*
X60130001Y-85800000D01*
G75*
G02*
X60380000Y-86049999I0J-249999D01*
G01*
X60380000Y-87075001D01*
G75*
G02*
X60130001Y-87325000I-249999J0D01*
G01*
G37*
G36*
G01*
X60130001Y-92000000D02*
X57979999Y-92000000D01*
G75*
G02*
X57730000Y-91750001I0J249999D01*
G01*
X57730000Y-90724999D01*
G75*
G02*
X57979999Y-90475000I249999J0D01*
G01*
X60130001Y-90475000D01*
G75*
G02*
X60380000Y-90724999I0J-249999D01*
G01*
X60380000Y-91750001D01*
G75*
G02*
X60130001Y-92000000I-249999J0D01*
G01*
G37*
G36*
G01*
X63940001Y-87325000D02*
X61789999Y-87325000D01*
G75*
G02*
X61540000Y-87075001I0J249999D01*
G01*
X61540000Y-86049999D01*
G75*
G02*
X61789999Y-85800000I249999J0D01*
G01*
X63940001Y-85800000D01*
G75*
G02*
X64190000Y-86049999I0J-249999D01*
G01*
X64190000Y-87075001D01*
G75*
G02*
X63940001Y-87325000I-249999J0D01*
G01*
G37*
G36*
G01*
X63940001Y-92000000D02*
X61789999Y-92000000D01*
G75*
G02*
X61540000Y-91750001I0J249999D01*
G01*
X61540000Y-90724999D01*
G75*
G02*
X61789999Y-90475000I249999J0D01*
G01*
X63940001Y-90475000D01*
G75*
G02*
X64190000Y-90724999I0J-249999D01*
G01*
X64190000Y-91750001D01*
G75*
G02*
X63940001Y-92000000I-249999J0D01*
G01*
G37*
G36*
G01*
X67750001Y-87325000D02*
X65599999Y-87325000D01*
G75*
G02*
X65350000Y-87075001I0J249999D01*
G01*
X65350000Y-86049999D01*
G75*
G02*
X65599999Y-85800000I249999J0D01*
G01*
X67750001Y-85800000D01*
G75*
G02*
X68000000Y-86049999I0J-249999D01*
G01*
X68000000Y-87075001D01*
G75*
G02*
X67750001Y-87325000I-249999J0D01*
G01*
G37*
G36*
G01*
X67750001Y-92000000D02*
X65599999Y-92000000D01*
G75*
G02*
X65350000Y-91750001I0J249999D01*
G01*
X65350000Y-90724999D01*
G75*
G02*
X65599999Y-90475000I249999J0D01*
G01*
X67750001Y-90475000D01*
G75*
G02*
X68000000Y-90724999I0J-249999D01*
G01*
X68000000Y-91750001D01*
G75*
G02*
X67750001Y-92000000I-249999J0D01*
G01*
G37*
G36*
G01*
X71560001Y-87325000D02*
X69409999Y-87325000D01*
G75*
G02*
X69160000Y-87075001I0J249999D01*
G01*
X69160000Y-86049999D01*
G75*
G02*
X69409999Y-85800000I249999J0D01*
G01*
X71560001Y-85800000D01*
G75*
G02*
X71810000Y-86049999I0J-249999D01*
G01*
X71810000Y-87075001D01*
G75*
G02*
X71560001Y-87325000I-249999J0D01*
G01*
G37*
G36*
G01*
X71560001Y-92000000D02*
X69409999Y-92000000D01*
G75*
G02*
X69160000Y-91750001I0J249999D01*
G01*
X69160000Y-90724999D01*
G75*
G02*
X69409999Y-90475000I249999J0D01*
G01*
X71560001Y-90475000D01*
G75*
G02*
X71810000Y-90724999I0J-249999D01*
G01*
X71810000Y-91750001D01*
G75*
G02*
X71560001Y-92000000I-249999J0D01*
G01*
G37*
G36*
G01*
X75370001Y-87325000D02*
X73219999Y-87325000D01*
G75*
G02*
X72970000Y-87075001I0J249999D01*
G01*
X72970000Y-86049999D01*
G75*
G02*
X73219999Y-85800000I249999J0D01*
G01*
X75370001Y-85800000D01*
G75*
G02*
X75620000Y-86049999I0J-249999D01*
G01*
X75620000Y-87075001D01*
G75*
G02*
X75370001Y-87325000I-249999J0D01*
G01*
G37*
G36*
G01*
X75370001Y-92000000D02*
X73219999Y-92000000D01*
G75*
G02*
X72970000Y-91750001I0J249999D01*
G01*
X72970000Y-90724999D01*
G75*
G02*
X73219999Y-90475000I249999J0D01*
G01*
X75370001Y-90475000D01*
G75*
G02*
X75620000Y-90724999I0J-249999D01*
G01*
X75620000Y-91750001D01*
G75*
G02*
X75370001Y-92000000I-249999J0D01*
G01*
G37*
G36*
G01*
X79180001Y-87325000D02*
X77029999Y-87325000D01*
G75*
G02*
X76780000Y-87075001I0J249999D01*
G01*
X76780000Y-86049999D01*
G75*
G02*
X77029999Y-85800000I249999J0D01*
G01*
X79180001Y-85800000D01*
G75*
G02*
X79430000Y-86049999I0J-249999D01*
G01*
X79430000Y-87075001D01*
G75*
G02*
X79180001Y-87325000I-249999J0D01*
G01*
G37*
G36*
G01*
X79180001Y-92000000D02*
X77029999Y-92000000D01*
G75*
G02*
X76780000Y-91750001I0J249999D01*
G01*
X76780000Y-90724999D01*
G75*
G02*
X77029999Y-90475000I249999J0D01*
G01*
X79180001Y-90475000D01*
G75*
G02*
X79430000Y-90724999I0J-249999D01*
G01*
X79430000Y-91750001D01*
G75*
G02*
X79180001Y-92000000I-249999J0D01*
G01*
G37*
G36*
G01*
X82990001Y-87325000D02*
X80839999Y-87325000D01*
G75*
G02*
X80590000Y-87075001I0J249999D01*
G01*
X80590000Y-86049999D01*
G75*
G02*
X80839999Y-85800000I249999J0D01*
G01*
X82990001Y-85800000D01*
G75*
G02*
X83240000Y-86049999I0J-249999D01*
G01*
X83240000Y-87075001D01*
G75*
G02*
X82990001Y-87325000I-249999J0D01*
G01*
G37*
G36*
G01*
X82990001Y-92000000D02*
X80839999Y-92000000D01*
G75*
G02*
X80590000Y-91750001I0J249999D01*
G01*
X80590000Y-90724999D01*
G75*
G02*
X80839999Y-90475000I249999J0D01*
G01*
X82990001Y-90475000D01*
G75*
G02*
X83240000Y-90724999I0J-249999D01*
G01*
X83240000Y-91750001D01*
G75*
G02*
X82990001Y-92000000I-249999J0D01*
G01*
G37*
G36*
G01*
X86800001Y-87325000D02*
X84649999Y-87325000D01*
G75*
G02*
X84400000Y-87075001I0J249999D01*
G01*
X84400000Y-86049999D01*
G75*
G02*
X84649999Y-85800000I249999J0D01*
G01*
X86800001Y-85800000D01*
G75*
G02*
X87050000Y-86049999I0J-249999D01*
G01*
X87050000Y-87075001D01*
G75*
G02*
X86800001Y-87325000I-249999J0D01*
G01*
G37*
G36*
G01*
X86800001Y-92000000D02*
X84649999Y-92000000D01*
G75*
G02*
X84400000Y-91750001I0J249999D01*
G01*
X84400000Y-90724999D01*
G75*
G02*
X84649999Y-90475000I249999J0D01*
G01*
X86800001Y-90475000D01*
G75*
G02*
X87050000Y-90724999I0J-249999D01*
G01*
X87050000Y-91750001D01*
G75*
G02*
X86800001Y-92000000I-249999J0D01*
G01*
G37*
G36*
G01*
X40925000Y-53737500D02*
X40925000Y-54212500D01*
G75*
G02*
X40687500Y-54450000I-237500J0D01*
G01*
X40112500Y-54450000D01*
G75*
G02*
X39875000Y-54212500I0J237500D01*
G01*
X39875000Y-53737500D01*
G75*
G02*
X40112500Y-53500000I237500J0D01*
G01*
X40687500Y-53500000D01*
G75*
G02*
X40925000Y-53737500I0J-237500D01*
G01*
G37*
G36*
G01*
X42675000Y-53737500D02*
X42675000Y-54212500D01*
G75*
G02*
X42437500Y-54450000I-237500J0D01*
G01*
X41862500Y-54450000D01*
G75*
G02*
X41625000Y-54212500I0J237500D01*
G01*
X41625000Y-53737500D01*
G75*
G02*
X41862500Y-53500000I237500J0D01*
G01*
X42437500Y-53500000D01*
G75*
G02*
X42675000Y-53737500I0J-237500D01*
G01*
G37*
G36*
G01*
X40925000Y-51197500D02*
X40925000Y-51672500D01*
G75*
G02*
X40687500Y-51910000I-237500J0D01*
G01*
X40112500Y-51910000D01*
G75*
G02*
X39875000Y-51672500I0J237500D01*
G01*
X39875000Y-51197500D01*
G75*
G02*
X40112500Y-50960000I237500J0D01*
G01*
X40687500Y-50960000D01*
G75*
G02*
X40925000Y-51197500I0J-237500D01*
G01*
G37*
G36*
G01*
X42675000Y-51197500D02*
X42675000Y-51672500D01*
G75*
G02*
X42437500Y-51910000I-237500J0D01*
G01*
X41862500Y-51910000D01*
G75*
G02*
X41625000Y-51672500I0J237500D01*
G01*
X41625000Y-51197500D01*
G75*
G02*
X41862500Y-50960000I237500J0D01*
G01*
X42437500Y-50960000D01*
G75*
G02*
X42675000Y-51197500I0J-237500D01*
G01*
G37*
G36*
G01*
X40925000Y-46117500D02*
X40925000Y-46592500D01*
G75*
G02*
X40687500Y-46830000I-237500J0D01*
G01*
X40112500Y-46830000D01*
G75*
G02*
X39875000Y-46592500I0J237500D01*
G01*
X39875000Y-46117500D01*
G75*
G02*
X40112500Y-45880000I237500J0D01*
G01*
X40687500Y-45880000D01*
G75*
G02*
X40925000Y-46117500I0J-237500D01*
G01*
G37*
G36*
G01*
X42675000Y-46117500D02*
X42675000Y-46592500D01*
G75*
G02*
X42437500Y-46830000I-237500J0D01*
G01*
X41862500Y-46830000D01*
G75*
G02*
X41625000Y-46592500I0J237500D01*
G01*
X41625000Y-46117500D01*
G75*
G02*
X41862500Y-45880000I237500J0D01*
G01*
X42437500Y-45880000D01*
G75*
G02*
X42675000Y-46117500I0J-237500D01*
G01*
G37*
G36*
G01*
X40925000Y-43577500D02*
X40925000Y-44052500D01*
G75*
G02*
X40687500Y-44290000I-237500J0D01*
G01*
X40112500Y-44290000D01*
G75*
G02*
X39875000Y-44052500I0J237500D01*
G01*
X39875000Y-43577500D01*
G75*
G02*
X40112500Y-43340000I237500J0D01*
G01*
X40687500Y-43340000D01*
G75*
G02*
X40925000Y-43577500I0J-237500D01*
G01*
G37*
G36*
G01*
X42675000Y-43577500D02*
X42675000Y-44052500D01*
G75*
G02*
X42437500Y-44290000I-237500J0D01*
G01*
X41862500Y-44290000D01*
G75*
G02*
X41625000Y-44052500I0J237500D01*
G01*
X41625000Y-43577500D01*
G75*
G02*
X41862500Y-43340000I237500J0D01*
G01*
X42437500Y-43340000D01*
G75*
G02*
X42675000Y-43577500I0J-237500D01*
G01*
G37*
G36*
G01*
X40925000Y-41037500D02*
X40925000Y-41512500D01*
G75*
G02*
X40687500Y-41750000I-237500J0D01*
G01*
X40112500Y-41750000D01*
G75*
G02*
X39875000Y-41512500I0J237500D01*
G01*
X39875000Y-41037500D01*
G75*
G02*
X40112500Y-40800000I237500J0D01*
G01*
X40687500Y-40800000D01*
G75*
G02*
X40925000Y-41037500I0J-237500D01*
G01*
G37*
G36*
G01*
X42675000Y-41037500D02*
X42675000Y-41512500D01*
G75*
G02*
X42437500Y-41750000I-237500J0D01*
G01*
X41862500Y-41750000D01*
G75*
G02*
X41625000Y-41512500I0J237500D01*
G01*
X41625000Y-41037500D01*
G75*
G02*
X41862500Y-40800000I237500J0D01*
G01*
X42437500Y-40800000D01*
G75*
G02*
X42675000Y-41037500I0J-237500D01*
G01*
G37*
G36*
G01*
X40925000Y-38497500D02*
X40925000Y-38972500D01*
G75*
G02*
X40687500Y-39210000I-237500J0D01*
G01*
X40112500Y-39210000D01*
G75*
G02*
X39875000Y-38972500I0J237500D01*
G01*
X39875000Y-38497500D01*
G75*
G02*
X40112500Y-38260000I237500J0D01*
G01*
X40687500Y-38260000D01*
G75*
G02*
X40925000Y-38497500I0J-237500D01*
G01*
G37*
G36*
G01*
X42675000Y-38497500D02*
X42675000Y-38972500D01*
G75*
G02*
X42437500Y-39210000I-237500J0D01*
G01*
X41862500Y-39210000D01*
G75*
G02*
X41625000Y-38972500I0J237500D01*
G01*
X41625000Y-38497500D01*
G75*
G02*
X41862500Y-38260000I237500J0D01*
G01*
X42437500Y-38260000D01*
G75*
G02*
X42675000Y-38497500I0J-237500D01*
G01*
G37*
G36*
G01*
X40925000Y-35957500D02*
X40925000Y-36432500D01*
G75*
G02*
X40687500Y-36670000I-237500J0D01*
G01*
X40112500Y-36670000D01*
G75*
G02*
X39875000Y-36432500I0J237500D01*
G01*
X39875000Y-35957500D01*
G75*
G02*
X40112500Y-35720000I237500J0D01*
G01*
X40687500Y-35720000D01*
G75*
G02*
X40925000Y-35957500I0J-237500D01*
G01*
G37*
G36*
G01*
X42675000Y-35957500D02*
X42675000Y-36432500D01*
G75*
G02*
X42437500Y-36670000I-237500J0D01*
G01*
X41862500Y-36670000D01*
G75*
G02*
X41625000Y-36432500I0J237500D01*
G01*
X41625000Y-35957500D01*
G75*
G02*
X41862500Y-35720000I237500J0D01*
G01*
X42437500Y-35720000D01*
G75*
G02*
X42675000Y-35957500I0J-237500D01*
G01*
G37*
G36*
G01*
X40925000Y-33417500D02*
X40925000Y-33892500D01*
G75*
G02*
X40687500Y-34130000I-237500J0D01*
G01*
X40112500Y-34130000D01*
G75*
G02*
X39875000Y-33892500I0J237500D01*
G01*
X39875000Y-33417500D01*
G75*
G02*
X40112500Y-33180000I237500J0D01*
G01*
X40687500Y-33180000D01*
G75*
G02*
X40925000Y-33417500I0J-237500D01*
G01*
G37*
G36*
G01*
X42675000Y-33417500D02*
X42675000Y-33892500D01*
G75*
G02*
X42437500Y-34130000I-237500J0D01*
G01*
X41862500Y-34130000D01*
G75*
G02*
X41625000Y-33892500I0J237500D01*
G01*
X41625000Y-33417500D01*
G75*
G02*
X41862500Y-33180000I237500J0D01*
G01*
X42437500Y-33180000D01*
G75*
G02*
X42675000Y-33417500I0J-237500D01*
G01*
G37*
G36*
G01*
X7222500Y-43070000D02*
X6747500Y-43070000D01*
G75*
G02*
X6510000Y-42832500I0J237500D01*
G01*
X6510000Y-42257500D01*
G75*
G02*
X6747500Y-42020000I237500J0D01*
G01*
X7222500Y-42020000D01*
G75*
G02*
X7460000Y-42257500I0J-237500D01*
G01*
X7460000Y-42832500D01*
G75*
G02*
X7222500Y-43070000I-237500J0D01*
G01*
G37*
G36*
G01*
X7222500Y-44820000D02*
X6747500Y-44820000D01*
G75*
G02*
X6510000Y-44582500I0J237500D01*
G01*
X6510000Y-44007500D01*
G75*
G02*
X6747500Y-43770000I237500J0D01*
G01*
X7222500Y-43770000D01*
G75*
G02*
X7460000Y-44007500I0J-237500D01*
G01*
X7460000Y-44582500D01*
G75*
G02*
X7222500Y-44820000I-237500J0D01*
G01*
G37*
G36*
G01*
X7222500Y-48150000D02*
X6747500Y-48150000D01*
G75*
G02*
X6510000Y-47912500I0J237500D01*
G01*
X6510000Y-47337500D01*
G75*
G02*
X6747500Y-47100000I237500J0D01*
G01*
X7222500Y-47100000D01*
G75*
G02*
X7460000Y-47337500I0J-237500D01*
G01*
X7460000Y-47912500D01*
G75*
G02*
X7222500Y-48150000I-237500J0D01*
G01*
G37*
G36*
G01*
X7222500Y-49900000D02*
X6747500Y-49900000D01*
G75*
G02*
X6510000Y-49662500I0J237500D01*
G01*
X6510000Y-49087500D01*
G75*
G02*
X6747500Y-48850000I237500J0D01*
G01*
X7222500Y-48850000D01*
G75*
G02*
X7460000Y-49087500I0J-237500D01*
G01*
X7460000Y-49662500D01*
G75*
G02*
X7222500Y-49900000I-237500J0D01*
G01*
G37*
G36*
G01*
X14842500Y-43070000D02*
X14367500Y-43070000D01*
G75*
G02*
X14130000Y-42832500I0J237500D01*
G01*
X14130000Y-42257500D01*
G75*
G02*
X14367500Y-42020000I237500J0D01*
G01*
X14842500Y-42020000D01*
G75*
G02*
X15080000Y-42257500I0J-237500D01*
G01*
X15080000Y-42832500D01*
G75*
G02*
X14842500Y-43070000I-237500J0D01*
G01*
G37*
G36*
G01*
X14842500Y-44820000D02*
X14367500Y-44820000D01*
G75*
G02*
X14130000Y-44582500I0J237500D01*
G01*
X14130000Y-44007500D01*
G75*
G02*
X14367500Y-43770000I237500J0D01*
G01*
X14842500Y-43770000D01*
G75*
G02*
X15080000Y-44007500I0J-237500D01*
G01*
X15080000Y-44582500D01*
G75*
G02*
X14842500Y-44820000I-237500J0D01*
G01*
G37*
G36*
G01*
X14890000Y-39767500D02*
X14890000Y-40242500D01*
G75*
G02*
X14652500Y-40480000I-237500J0D01*
G01*
X14077500Y-40480000D01*
G75*
G02*
X13840000Y-40242500I0J237500D01*
G01*
X13840000Y-39767500D01*
G75*
G02*
X14077500Y-39530000I237500J0D01*
G01*
X14652500Y-39530000D01*
G75*
G02*
X14890000Y-39767500I0J-237500D01*
G01*
G37*
G36*
G01*
X16640000Y-39767500D02*
X16640000Y-40242500D01*
G75*
G02*
X16402500Y-40480000I-237500J0D01*
G01*
X15827500Y-40480000D01*
G75*
G02*
X15590000Y-40242500I0J237500D01*
G01*
X15590000Y-39767500D01*
G75*
G02*
X15827500Y-39530000I237500J0D01*
G01*
X16402500Y-39530000D01*
G75*
G02*
X16640000Y-39767500I0J-237500D01*
G01*
G37*
G36*
G01*
X14890000Y-37227500D02*
X14890000Y-37702500D01*
G75*
G02*
X14652500Y-37940000I-237500J0D01*
G01*
X14077500Y-37940000D01*
G75*
G02*
X13840000Y-37702500I0J237500D01*
G01*
X13840000Y-37227500D01*
G75*
G02*
X14077500Y-36990000I237500J0D01*
G01*
X14652500Y-36990000D01*
G75*
G02*
X14890000Y-37227500I0J-237500D01*
G01*
G37*
G36*
G01*
X16640000Y-37227500D02*
X16640000Y-37702500D01*
G75*
G02*
X16402500Y-37940000I-237500J0D01*
G01*
X15827500Y-37940000D01*
G75*
G02*
X15590000Y-37702500I0J237500D01*
G01*
X15590000Y-37227500D01*
G75*
G02*
X15827500Y-36990000I237500J0D01*
G01*
X16402500Y-36990000D01*
G75*
G02*
X16640000Y-37227500I0J-237500D01*
G01*
G37*
G36*
G01*
X16640000Y-27067500D02*
X16640000Y-27542500D01*
G75*
G02*
X16402500Y-27780000I-237500J0D01*
G01*
X15827500Y-27780000D01*
G75*
G02*
X15590000Y-27542500I0J237500D01*
G01*
X15590000Y-27067500D01*
G75*
G02*
X15827500Y-26830000I237500J0D01*
G01*
X16402500Y-26830000D01*
G75*
G02*
X16640000Y-27067500I0J-237500D01*
G01*
G37*
G36*
G01*
X14890000Y-27067500D02*
X14890000Y-27542500D01*
G75*
G02*
X14652500Y-27780000I-237500J0D01*
G01*
X14077500Y-27780000D01*
G75*
G02*
X13840000Y-27542500I0J237500D01*
G01*
X13840000Y-27067500D01*
G75*
G02*
X14077500Y-26830000I237500J0D01*
G01*
X14652500Y-26830000D01*
G75*
G02*
X14890000Y-27067500I0J-237500D01*
G01*
G37*
M02*
