G04 #@! TF.GenerationSoftware,KiCad,Pcbnew,(5.1.6)-1*
G04 #@! TF.CreationDate,2023-04-05T00:11:33+09:00*
G04 #@! TF.ProjectId,SubPCB,53756250-4342-42e6-9b69-6361645f7063,rev?*
G04 #@! TF.SameCoordinates,Original*
G04 #@! TF.FileFunction,Legend,Bot*
G04 #@! TF.FilePolarity,Positive*
%FSLAX46Y46*%
G04 Gerber Fmt 4.6, Leading zero omitted, Abs format (unit mm)*
G04 Created by KiCad (PCBNEW (5.1.6)-1) date 2023-04-05 00:11:33*
%MOMM*%
%LPD*%
G01*
G04 APERTURE LIST*
%ADD10C,0.120000*%
%ADD11C,0.200000*%
%ADD12C,0.127000*%
%ADD13C,0.150000*%
G04 APERTURE END LIST*
D10*
X41446267Y-22985000D02*
X41103733Y-22985000D01*
X41446267Y-24005000D02*
X41103733Y-24005000D01*
X41446267Y-20445000D02*
X41103733Y-20445000D01*
X41446267Y-21465000D02*
X41103733Y-21465000D01*
X41446267Y-17905000D02*
X41103733Y-17905000D01*
X41446267Y-18925000D02*
X41103733Y-18925000D01*
X41446267Y-15365000D02*
X41103733Y-15365000D01*
X41446267Y-16385000D02*
X41103733Y-16385000D01*
X41446267Y-12825000D02*
X41103733Y-12825000D01*
X41446267Y-13845000D02*
X41103733Y-13845000D01*
X41446267Y-10285000D02*
X41103733Y-10285000D01*
X41446267Y-11305000D02*
X41103733Y-11305000D01*
D11*
X13915000Y-6985000D02*
G75*
G03*
X13915000Y-6985000I-100000J0D01*
G01*
X74875000Y-6985000D02*
G75*
G03*
X74875000Y-6985000I-100000J0D01*
G01*
D12*
X69255000Y-5715000D02*
X74255000Y-5715000D01*
X69255000Y-53975000D02*
X69255000Y-5715000D01*
X74255000Y-53975000D02*
X69255000Y-53975000D01*
X74255000Y-5715000D02*
X74255000Y-53975000D01*
X8295000Y-5715000D02*
X13295000Y-5715000D01*
X8295000Y-53975000D02*
X8295000Y-5715000D01*
X13295000Y-53975000D02*
X8295000Y-53975000D01*
X13295000Y-5715000D02*
X13295000Y-53975000D01*
X65275000Y-55745000D02*
X74775000Y-55745000D01*
X63275000Y-57745000D02*
X65275000Y-55745000D01*
X30275000Y-57745000D02*
X63275000Y-57745000D01*
X28275000Y-55745000D02*
X30275000Y-57745000D01*
X7775000Y-55745000D02*
X28275000Y-55745000D01*
X6275000Y23255000D02*
X6275000Y-54245000D01*
X74775000Y24755000D02*
X7775000Y24755000D01*
X76275000Y-54245000D02*
X76275000Y23255000D01*
X76275000Y23255000D02*
G75*
G03*
X74775000Y24755000I-1500000J0D01*
G01*
X7775000Y24755000D02*
G75*
G03*
X6275000Y23255000I0J-1500000D01*
G01*
X6275000Y-54245000D02*
G75*
G03*
X7775000Y-55745000I1500000J0D01*
G01*
X74775000Y-55745000D02*
G75*
G03*
X76275000Y-54245000I0J1500000D01*
G01*
D10*
X26206267Y-54485000D02*
X25863733Y-54485000D01*
X26206267Y-53465000D02*
X25863733Y-53465000D01*
X26206267Y-51945000D02*
X25863733Y-51945000D01*
X26206267Y-50925000D02*
X25863733Y-50925000D01*
X26206267Y-46865000D02*
X25863733Y-46865000D01*
X26206267Y-45845000D02*
X25863733Y-45845000D01*
X26206267Y-44325000D02*
X25863733Y-44325000D01*
X26206267Y-43305000D02*
X25863733Y-43305000D01*
X26206267Y-41785000D02*
X25863733Y-41785000D01*
X26206267Y-40765000D02*
X25863733Y-40765000D01*
X26206267Y-39245000D02*
X25863733Y-39245000D01*
X26206267Y-38225000D02*
X25863733Y-38225000D01*
X26206267Y-36705000D02*
X25863733Y-36705000D01*
X26206267Y-35685000D02*
X25863733Y-35685000D01*
X26206267Y-29085000D02*
X25863733Y-29085000D01*
X26206267Y-28065000D02*
X25863733Y-28065000D01*
X26206267Y-26545000D02*
X25863733Y-26545000D01*
X26206267Y-25525000D02*
X25863733Y-25525000D01*
X26206267Y-24005000D02*
X25863733Y-24005000D01*
X26206267Y-22985000D02*
X25863733Y-22985000D01*
X26206267Y-21465000D02*
X25863733Y-21465000D01*
X26206267Y-20445000D02*
X25863733Y-20445000D01*
X26206267Y-18925000D02*
X25863733Y-18925000D01*
X26206267Y-17905000D02*
X25863733Y-17905000D01*
X26206267Y-16385000D02*
X25863733Y-16385000D01*
X26206267Y-15365000D02*
X25863733Y-15365000D01*
X26206267Y-13845000D02*
X25863733Y-13845000D01*
X26206267Y-12825000D02*
X25863733Y-12825000D01*
X26206267Y-11305000D02*
X25863733Y-11305000D01*
X26206267Y-10285000D02*
X25863733Y-10285000D01*
X26206267Y-8765000D02*
X25863733Y-8765000D01*
X26206267Y-7745000D02*
X25863733Y-7745000D01*
X15411267Y-30355000D02*
X15068733Y-30355000D01*
X15411267Y-29335000D02*
X15068733Y-29335000D01*
X15411267Y-25275000D02*
X15068733Y-25275000D01*
X15411267Y-24255000D02*
X15068733Y-24255000D01*
X15411267Y-22735000D02*
X15068733Y-22735000D01*
X15411267Y-21715000D02*
X15068733Y-21715000D01*
X67138733Y-47115000D02*
X67481267Y-47115000D01*
X67138733Y-48135000D02*
X67481267Y-48135000D01*
X6475000Y-35971267D02*
X6475000Y-35628733D01*
X7495000Y-35971267D02*
X7495000Y-35628733D01*
D13*
X41917857Y-22517380D02*
X42251190Y-22041190D01*
X42489285Y-22517380D02*
X42489285Y-21517380D01*
X42108333Y-21517380D01*
X42013095Y-21565000D01*
X41965476Y-21612619D01*
X41917857Y-21707857D01*
X41917857Y-21850714D01*
X41965476Y-21945952D01*
X42013095Y-21993571D01*
X42108333Y-22041190D01*
X42489285Y-22041190D01*
X41013095Y-21517380D02*
X41489285Y-21517380D01*
X41536904Y-21993571D01*
X41489285Y-21945952D01*
X41394047Y-21898333D01*
X41155952Y-21898333D01*
X41060714Y-21945952D01*
X41013095Y-21993571D01*
X40965476Y-22088809D01*
X40965476Y-22326904D01*
X41013095Y-22422142D01*
X41060714Y-22469761D01*
X41155952Y-22517380D01*
X41394047Y-22517380D01*
X41489285Y-22469761D01*
X41536904Y-22422142D01*
X40394047Y-21945952D02*
X40489285Y-21898333D01*
X40536904Y-21850714D01*
X40584523Y-21755476D01*
X40584523Y-21707857D01*
X40536904Y-21612619D01*
X40489285Y-21565000D01*
X40394047Y-21517380D01*
X40203571Y-21517380D01*
X40108333Y-21565000D01*
X40060714Y-21612619D01*
X40013095Y-21707857D01*
X40013095Y-21755476D01*
X40060714Y-21850714D01*
X40108333Y-21898333D01*
X40203571Y-21945952D01*
X40394047Y-21945952D01*
X40489285Y-21993571D01*
X40536904Y-22041190D01*
X40584523Y-22136428D01*
X40584523Y-22326904D01*
X40536904Y-22422142D01*
X40489285Y-22469761D01*
X40394047Y-22517380D01*
X40203571Y-22517380D01*
X40108333Y-22469761D01*
X40060714Y-22422142D01*
X40013095Y-22326904D01*
X40013095Y-22136428D01*
X40060714Y-22041190D01*
X40108333Y-21993571D01*
X40203571Y-21945952D01*
X41917857Y-19977380D02*
X42251190Y-19501190D01*
X42489285Y-19977380D02*
X42489285Y-18977380D01*
X42108333Y-18977380D01*
X42013095Y-19025000D01*
X41965476Y-19072619D01*
X41917857Y-19167857D01*
X41917857Y-19310714D01*
X41965476Y-19405952D01*
X42013095Y-19453571D01*
X42108333Y-19501190D01*
X42489285Y-19501190D01*
X41013095Y-18977380D02*
X41489285Y-18977380D01*
X41536904Y-19453571D01*
X41489285Y-19405952D01*
X41394047Y-19358333D01*
X41155952Y-19358333D01*
X41060714Y-19405952D01*
X41013095Y-19453571D01*
X40965476Y-19548809D01*
X40965476Y-19786904D01*
X41013095Y-19882142D01*
X41060714Y-19929761D01*
X41155952Y-19977380D01*
X41394047Y-19977380D01*
X41489285Y-19929761D01*
X41536904Y-19882142D01*
X40632142Y-18977380D02*
X39965476Y-18977380D01*
X40394047Y-19977380D01*
X41917857Y-17437380D02*
X42251190Y-16961190D01*
X42489285Y-17437380D02*
X42489285Y-16437380D01*
X42108333Y-16437380D01*
X42013095Y-16485000D01*
X41965476Y-16532619D01*
X41917857Y-16627857D01*
X41917857Y-16770714D01*
X41965476Y-16865952D01*
X42013095Y-16913571D01*
X42108333Y-16961190D01*
X42489285Y-16961190D01*
X41013095Y-16437380D02*
X41489285Y-16437380D01*
X41536904Y-16913571D01*
X41489285Y-16865952D01*
X41394047Y-16818333D01*
X41155952Y-16818333D01*
X41060714Y-16865952D01*
X41013095Y-16913571D01*
X40965476Y-17008809D01*
X40965476Y-17246904D01*
X41013095Y-17342142D01*
X41060714Y-17389761D01*
X41155952Y-17437380D01*
X41394047Y-17437380D01*
X41489285Y-17389761D01*
X41536904Y-17342142D01*
X40108333Y-16437380D02*
X40298809Y-16437380D01*
X40394047Y-16485000D01*
X40441666Y-16532619D01*
X40536904Y-16675476D01*
X40584523Y-16865952D01*
X40584523Y-17246904D01*
X40536904Y-17342142D01*
X40489285Y-17389761D01*
X40394047Y-17437380D01*
X40203571Y-17437380D01*
X40108333Y-17389761D01*
X40060714Y-17342142D01*
X40013095Y-17246904D01*
X40013095Y-17008809D01*
X40060714Y-16913571D01*
X40108333Y-16865952D01*
X40203571Y-16818333D01*
X40394047Y-16818333D01*
X40489285Y-16865952D01*
X40536904Y-16913571D01*
X40584523Y-17008809D01*
X41917857Y-14897380D02*
X42251190Y-14421190D01*
X42489285Y-14897380D02*
X42489285Y-13897380D01*
X42108333Y-13897380D01*
X42013095Y-13945000D01*
X41965476Y-13992619D01*
X41917857Y-14087857D01*
X41917857Y-14230714D01*
X41965476Y-14325952D01*
X42013095Y-14373571D01*
X42108333Y-14421190D01*
X42489285Y-14421190D01*
X41013095Y-13897380D02*
X41489285Y-13897380D01*
X41536904Y-14373571D01*
X41489285Y-14325952D01*
X41394047Y-14278333D01*
X41155952Y-14278333D01*
X41060714Y-14325952D01*
X41013095Y-14373571D01*
X40965476Y-14468809D01*
X40965476Y-14706904D01*
X41013095Y-14802142D01*
X41060714Y-14849761D01*
X41155952Y-14897380D01*
X41394047Y-14897380D01*
X41489285Y-14849761D01*
X41536904Y-14802142D01*
X40060714Y-13897380D02*
X40536904Y-13897380D01*
X40584523Y-14373571D01*
X40536904Y-14325952D01*
X40441666Y-14278333D01*
X40203571Y-14278333D01*
X40108333Y-14325952D01*
X40060714Y-14373571D01*
X40013095Y-14468809D01*
X40013095Y-14706904D01*
X40060714Y-14802142D01*
X40108333Y-14849761D01*
X40203571Y-14897380D01*
X40441666Y-14897380D01*
X40536904Y-14849761D01*
X40584523Y-14802142D01*
X41441666Y-12357380D02*
X41775000Y-11881190D01*
X42013095Y-12357380D02*
X42013095Y-11357380D01*
X41632142Y-11357380D01*
X41536904Y-11405000D01*
X41489285Y-11452619D01*
X41441666Y-11547857D01*
X41441666Y-11690714D01*
X41489285Y-11785952D01*
X41536904Y-11833571D01*
X41632142Y-11881190D01*
X42013095Y-11881190D01*
X40584523Y-11690714D02*
X40584523Y-12357380D01*
X40822619Y-11309761D02*
X41060714Y-12024047D01*
X40441666Y-12024047D01*
X41441666Y-9817380D02*
X41775000Y-9341190D01*
X42013095Y-9817380D02*
X42013095Y-8817380D01*
X41632142Y-8817380D01*
X41536904Y-8865000D01*
X41489285Y-8912619D01*
X41441666Y-9007857D01*
X41441666Y-9150714D01*
X41489285Y-9245952D01*
X41536904Y-9293571D01*
X41632142Y-9341190D01*
X42013095Y-9341190D01*
X41108333Y-8817380D02*
X40489285Y-8817380D01*
X40822619Y-9198333D01*
X40679761Y-9198333D01*
X40584523Y-9245952D01*
X40536904Y-9293571D01*
X40489285Y-9388809D01*
X40489285Y-9626904D01*
X40536904Y-9722142D01*
X40584523Y-9769761D01*
X40679761Y-9817380D01*
X40965476Y-9817380D01*
X41060714Y-9769761D01*
X41108333Y-9722142D01*
X73861904Y26687619D02*
X73861904Y25878095D01*
X73814285Y25782857D01*
X73766666Y25735238D01*
X73671428Y25687619D01*
X73480952Y25687619D01*
X73385714Y25735238D01*
X73338095Y25782857D01*
X73290476Y25878095D01*
X73290476Y26687619D01*
X72290476Y25687619D02*
X72861904Y25687619D01*
X72576190Y25687619D02*
X72576190Y26687619D01*
X72671428Y26544761D01*
X72766666Y26449523D01*
X72861904Y26401904D01*
X26677857Y-52997380D02*
X27011190Y-52521190D01*
X27249285Y-52997380D02*
X27249285Y-51997380D01*
X26868333Y-51997380D01*
X26773095Y-52045000D01*
X26725476Y-52092619D01*
X26677857Y-52187857D01*
X26677857Y-52330714D01*
X26725476Y-52425952D01*
X26773095Y-52473571D01*
X26868333Y-52521190D01*
X27249285Y-52521190D01*
X26344523Y-51997380D02*
X25725476Y-51997380D01*
X26058809Y-52378333D01*
X25915952Y-52378333D01*
X25820714Y-52425952D01*
X25773095Y-52473571D01*
X25725476Y-52568809D01*
X25725476Y-52806904D01*
X25773095Y-52902142D01*
X25820714Y-52949761D01*
X25915952Y-52997380D01*
X26201666Y-52997380D01*
X26296904Y-52949761D01*
X26344523Y-52902142D01*
X25392142Y-51997380D02*
X24725476Y-51997380D01*
X25154047Y-52997380D01*
X26677857Y-50457380D02*
X27011190Y-49981190D01*
X27249285Y-50457380D02*
X27249285Y-49457380D01*
X26868333Y-49457380D01*
X26773095Y-49505000D01*
X26725476Y-49552619D01*
X26677857Y-49647857D01*
X26677857Y-49790714D01*
X26725476Y-49885952D01*
X26773095Y-49933571D01*
X26868333Y-49981190D01*
X27249285Y-49981190D01*
X26344523Y-49457380D02*
X25725476Y-49457380D01*
X26058809Y-49838333D01*
X25915952Y-49838333D01*
X25820714Y-49885952D01*
X25773095Y-49933571D01*
X25725476Y-50028809D01*
X25725476Y-50266904D01*
X25773095Y-50362142D01*
X25820714Y-50409761D01*
X25915952Y-50457380D01*
X26201666Y-50457380D01*
X26296904Y-50409761D01*
X26344523Y-50362142D01*
X24868333Y-49457380D02*
X25058809Y-49457380D01*
X25154047Y-49505000D01*
X25201666Y-49552619D01*
X25296904Y-49695476D01*
X25344523Y-49885952D01*
X25344523Y-50266904D01*
X25296904Y-50362142D01*
X25249285Y-50409761D01*
X25154047Y-50457380D01*
X24963571Y-50457380D01*
X24868333Y-50409761D01*
X24820714Y-50362142D01*
X24773095Y-50266904D01*
X24773095Y-50028809D01*
X24820714Y-49933571D01*
X24868333Y-49885952D01*
X24963571Y-49838333D01*
X25154047Y-49838333D01*
X25249285Y-49885952D01*
X25296904Y-49933571D01*
X25344523Y-50028809D01*
X26677857Y-45377380D02*
X27011190Y-44901190D01*
X27249285Y-45377380D02*
X27249285Y-44377380D01*
X26868333Y-44377380D01*
X26773095Y-44425000D01*
X26725476Y-44472619D01*
X26677857Y-44567857D01*
X26677857Y-44710714D01*
X26725476Y-44805952D01*
X26773095Y-44853571D01*
X26868333Y-44901190D01*
X27249285Y-44901190D01*
X26344523Y-44377380D02*
X25725476Y-44377380D01*
X26058809Y-44758333D01*
X25915952Y-44758333D01*
X25820714Y-44805952D01*
X25773095Y-44853571D01*
X25725476Y-44948809D01*
X25725476Y-45186904D01*
X25773095Y-45282142D01*
X25820714Y-45329761D01*
X25915952Y-45377380D01*
X26201666Y-45377380D01*
X26296904Y-45329761D01*
X26344523Y-45282142D01*
X24820714Y-44377380D02*
X25296904Y-44377380D01*
X25344523Y-44853571D01*
X25296904Y-44805952D01*
X25201666Y-44758333D01*
X24963571Y-44758333D01*
X24868333Y-44805952D01*
X24820714Y-44853571D01*
X24773095Y-44948809D01*
X24773095Y-45186904D01*
X24820714Y-45282142D01*
X24868333Y-45329761D01*
X24963571Y-45377380D01*
X25201666Y-45377380D01*
X25296904Y-45329761D01*
X25344523Y-45282142D01*
X26677857Y-42837380D02*
X27011190Y-42361190D01*
X27249285Y-42837380D02*
X27249285Y-41837380D01*
X26868333Y-41837380D01*
X26773095Y-41885000D01*
X26725476Y-41932619D01*
X26677857Y-42027857D01*
X26677857Y-42170714D01*
X26725476Y-42265952D01*
X26773095Y-42313571D01*
X26868333Y-42361190D01*
X27249285Y-42361190D01*
X26344523Y-41837380D02*
X25725476Y-41837380D01*
X26058809Y-42218333D01*
X25915952Y-42218333D01*
X25820714Y-42265952D01*
X25773095Y-42313571D01*
X25725476Y-42408809D01*
X25725476Y-42646904D01*
X25773095Y-42742142D01*
X25820714Y-42789761D01*
X25915952Y-42837380D01*
X26201666Y-42837380D01*
X26296904Y-42789761D01*
X26344523Y-42742142D01*
X24868333Y-42170714D02*
X24868333Y-42837380D01*
X25106428Y-41789761D02*
X25344523Y-42504047D01*
X24725476Y-42504047D01*
X26677857Y-40297380D02*
X27011190Y-39821190D01*
X27249285Y-40297380D02*
X27249285Y-39297380D01*
X26868333Y-39297380D01*
X26773095Y-39345000D01*
X26725476Y-39392619D01*
X26677857Y-39487857D01*
X26677857Y-39630714D01*
X26725476Y-39725952D01*
X26773095Y-39773571D01*
X26868333Y-39821190D01*
X27249285Y-39821190D01*
X26344523Y-39297380D02*
X25725476Y-39297380D01*
X26058809Y-39678333D01*
X25915952Y-39678333D01*
X25820714Y-39725952D01*
X25773095Y-39773571D01*
X25725476Y-39868809D01*
X25725476Y-40106904D01*
X25773095Y-40202142D01*
X25820714Y-40249761D01*
X25915952Y-40297380D01*
X26201666Y-40297380D01*
X26296904Y-40249761D01*
X26344523Y-40202142D01*
X25392142Y-39297380D02*
X24773095Y-39297380D01*
X25106428Y-39678333D01*
X24963571Y-39678333D01*
X24868333Y-39725952D01*
X24820714Y-39773571D01*
X24773095Y-39868809D01*
X24773095Y-40106904D01*
X24820714Y-40202142D01*
X24868333Y-40249761D01*
X24963571Y-40297380D01*
X25249285Y-40297380D01*
X25344523Y-40249761D01*
X25392142Y-40202142D01*
X26677857Y-37757380D02*
X27011190Y-37281190D01*
X27249285Y-37757380D02*
X27249285Y-36757380D01*
X26868333Y-36757380D01*
X26773095Y-36805000D01*
X26725476Y-36852619D01*
X26677857Y-36947857D01*
X26677857Y-37090714D01*
X26725476Y-37185952D01*
X26773095Y-37233571D01*
X26868333Y-37281190D01*
X27249285Y-37281190D01*
X26344523Y-36757380D02*
X25725476Y-36757380D01*
X26058809Y-37138333D01*
X25915952Y-37138333D01*
X25820714Y-37185952D01*
X25773095Y-37233571D01*
X25725476Y-37328809D01*
X25725476Y-37566904D01*
X25773095Y-37662142D01*
X25820714Y-37709761D01*
X25915952Y-37757380D01*
X26201666Y-37757380D01*
X26296904Y-37709761D01*
X26344523Y-37662142D01*
X25344523Y-36852619D02*
X25296904Y-36805000D01*
X25201666Y-36757380D01*
X24963571Y-36757380D01*
X24868333Y-36805000D01*
X24820714Y-36852619D01*
X24773095Y-36947857D01*
X24773095Y-37043095D01*
X24820714Y-37185952D01*
X25392142Y-37757380D01*
X24773095Y-37757380D01*
X26677857Y-35217380D02*
X27011190Y-34741190D01*
X27249285Y-35217380D02*
X27249285Y-34217380D01*
X26868333Y-34217380D01*
X26773095Y-34265000D01*
X26725476Y-34312619D01*
X26677857Y-34407857D01*
X26677857Y-34550714D01*
X26725476Y-34645952D01*
X26773095Y-34693571D01*
X26868333Y-34741190D01*
X27249285Y-34741190D01*
X26344523Y-34217380D02*
X25725476Y-34217380D01*
X26058809Y-34598333D01*
X25915952Y-34598333D01*
X25820714Y-34645952D01*
X25773095Y-34693571D01*
X25725476Y-34788809D01*
X25725476Y-35026904D01*
X25773095Y-35122142D01*
X25820714Y-35169761D01*
X25915952Y-35217380D01*
X26201666Y-35217380D01*
X26296904Y-35169761D01*
X26344523Y-35122142D01*
X24773095Y-35217380D02*
X25344523Y-35217380D01*
X25058809Y-35217380D02*
X25058809Y-34217380D01*
X25154047Y-34360238D01*
X25249285Y-34455476D01*
X25344523Y-34503095D01*
X26677857Y-27597380D02*
X27011190Y-27121190D01*
X27249285Y-27597380D02*
X27249285Y-26597380D01*
X26868333Y-26597380D01*
X26773095Y-26645000D01*
X26725476Y-26692619D01*
X26677857Y-26787857D01*
X26677857Y-26930714D01*
X26725476Y-27025952D01*
X26773095Y-27073571D01*
X26868333Y-27121190D01*
X27249285Y-27121190D01*
X26344523Y-26597380D02*
X25725476Y-26597380D01*
X26058809Y-26978333D01*
X25915952Y-26978333D01*
X25820714Y-27025952D01*
X25773095Y-27073571D01*
X25725476Y-27168809D01*
X25725476Y-27406904D01*
X25773095Y-27502142D01*
X25820714Y-27549761D01*
X25915952Y-27597380D01*
X26201666Y-27597380D01*
X26296904Y-27549761D01*
X26344523Y-27502142D01*
X25106428Y-26597380D02*
X25011190Y-26597380D01*
X24915952Y-26645000D01*
X24868333Y-26692619D01*
X24820714Y-26787857D01*
X24773095Y-26978333D01*
X24773095Y-27216428D01*
X24820714Y-27406904D01*
X24868333Y-27502142D01*
X24915952Y-27549761D01*
X25011190Y-27597380D01*
X25106428Y-27597380D01*
X25201666Y-27549761D01*
X25249285Y-27502142D01*
X25296904Y-27406904D01*
X25344523Y-27216428D01*
X25344523Y-26978333D01*
X25296904Y-26787857D01*
X25249285Y-26692619D01*
X25201666Y-26645000D01*
X25106428Y-26597380D01*
X26677857Y-25057380D02*
X27011190Y-24581190D01*
X27249285Y-25057380D02*
X27249285Y-24057380D01*
X26868333Y-24057380D01*
X26773095Y-24105000D01*
X26725476Y-24152619D01*
X26677857Y-24247857D01*
X26677857Y-24390714D01*
X26725476Y-24485952D01*
X26773095Y-24533571D01*
X26868333Y-24581190D01*
X27249285Y-24581190D01*
X26296904Y-24152619D02*
X26249285Y-24105000D01*
X26154047Y-24057380D01*
X25915952Y-24057380D01*
X25820714Y-24105000D01*
X25773095Y-24152619D01*
X25725476Y-24247857D01*
X25725476Y-24343095D01*
X25773095Y-24485952D01*
X26344523Y-25057380D01*
X25725476Y-25057380D01*
X25249285Y-25057380D02*
X25058809Y-25057380D01*
X24963571Y-25009761D01*
X24915952Y-24962142D01*
X24820714Y-24819285D01*
X24773095Y-24628809D01*
X24773095Y-24247857D01*
X24820714Y-24152619D01*
X24868333Y-24105000D01*
X24963571Y-24057380D01*
X25154047Y-24057380D01*
X25249285Y-24105000D01*
X25296904Y-24152619D01*
X25344523Y-24247857D01*
X25344523Y-24485952D01*
X25296904Y-24581190D01*
X25249285Y-24628809D01*
X25154047Y-24676428D01*
X24963571Y-24676428D01*
X24868333Y-24628809D01*
X24820714Y-24581190D01*
X24773095Y-24485952D01*
X26677857Y-22517380D02*
X27011190Y-22041190D01*
X27249285Y-22517380D02*
X27249285Y-21517380D01*
X26868333Y-21517380D01*
X26773095Y-21565000D01*
X26725476Y-21612619D01*
X26677857Y-21707857D01*
X26677857Y-21850714D01*
X26725476Y-21945952D01*
X26773095Y-21993571D01*
X26868333Y-22041190D01*
X27249285Y-22041190D01*
X26296904Y-21612619D02*
X26249285Y-21565000D01*
X26154047Y-21517380D01*
X25915952Y-21517380D01*
X25820714Y-21565000D01*
X25773095Y-21612619D01*
X25725476Y-21707857D01*
X25725476Y-21803095D01*
X25773095Y-21945952D01*
X26344523Y-22517380D01*
X25725476Y-22517380D01*
X25154047Y-21945952D02*
X25249285Y-21898333D01*
X25296904Y-21850714D01*
X25344523Y-21755476D01*
X25344523Y-21707857D01*
X25296904Y-21612619D01*
X25249285Y-21565000D01*
X25154047Y-21517380D01*
X24963571Y-21517380D01*
X24868333Y-21565000D01*
X24820714Y-21612619D01*
X24773095Y-21707857D01*
X24773095Y-21755476D01*
X24820714Y-21850714D01*
X24868333Y-21898333D01*
X24963571Y-21945952D01*
X25154047Y-21945952D01*
X25249285Y-21993571D01*
X25296904Y-22041190D01*
X25344523Y-22136428D01*
X25344523Y-22326904D01*
X25296904Y-22422142D01*
X25249285Y-22469761D01*
X25154047Y-22517380D01*
X24963571Y-22517380D01*
X24868333Y-22469761D01*
X24820714Y-22422142D01*
X24773095Y-22326904D01*
X24773095Y-22136428D01*
X24820714Y-22041190D01*
X24868333Y-21993571D01*
X24963571Y-21945952D01*
X26677857Y-19977380D02*
X27011190Y-19501190D01*
X27249285Y-19977380D02*
X27249285Y-18977380D01*
X26868333Y-18977380D01*
X26773095Y-19025000D01*
X26725476Y-19072619D01*
X26677857Y-19167857D01*
X26677857Y-19310714D01*
X26725476Y-19405952D01*
X26773095Y-19453571D01*
X26868333Y-19501190D01*
X27249285Y-19501190D01*
X26296904Y-19072619D02*
X26249285Y-19025000D01*
X26154047Y-18977380D01*
X25915952Y-18977380D01*
X25820714Y-19025000D01*
X25773095Y-19072619D01*
X25725476Y-19167857D01*
X25725476Y-19263095D01*
X25773095Y-19405952D01*
X26344523Y-19977380D01*
X25725476Y-19977380D01*
X25392142Y-18977380D02*
X24725476Y-18977380D01*
X25154047Y-19977380D01*
X26677857Y-17437380D02*
X27011190Y-16961190D01*
X27249285Y-17437380D02*
X27249285Y-16437380D01*
X26868333Y-16437380D01*
X26773095Y-16485000D01*
X26725476Y-16532619D01*
X26677857Y-16627857D01*
X26677857Y-16770714D01*
X26725476Y-16865952D01*
X26773095Y-16913571D01*
X26868333Y-16961190D01*
X27249285Y-16961190D01*
X26296904Y-16532619D02*
X26249285Y-16485000D01*
X26154047Y-16437380D01*
X25915952Y-16437380D01*
X25820714Y-16485000D01*
X25773095Y-16532619D01*
X25725476Y-16627857D01*
X25725476Y-16723095D01*
X25773095Y-16865952D01*
X26344523Y-17437380D01*
X25725476Y-17437380D01*
X24868333Y-16437380D02*
X25058809Y-16437380D01*
X25154047Y-16485000D01*
X25201666Y-16532619D01*
X25296904Y-16675476D01*
X25344523Y-16865952D01*
X25344523Y-17246904D01*
X25296904Y-17342142D01*
X25249285Y-17389761D01*
X25154047Y-17437380D01*
X24963571Y-17437380D01*
X24868333Y-17389761D01*
X24820714Y-17342142D01*
X24773095Y-17246904D01*
X24773095Y-17008809D01*
X24820714Y-16913571D01*
X24868333Y-16865952D01*
X24963571Y-16818333D01*
X25154047Y-16818333D01*
X25249285Y-16865952D01*
X25296904Y-16913571D01*
X25344523Y-17008809D01*
X26677857Y-14897380D02*
X27011190Y-14421190D01*
X27249285Y-14897380D02*
X27249285Y-13897380D01*
X26868333Y-13897380D01*
X26773095Y-13945000D01*
X26725476Y-13992619D01*
X26677857Y-14087857D01*
X26677857Y-14230714D01*
X26725476Y-14325952D01*
X26773095Y-14373571D01*
X26868333Y-14421190D01*
X27249285Y-14421190D01*
X26296904Y-13992619D02*
X26249285Y-13945000D01*
X26154047Y-13897380D01*
X25915952Y-13897380D01*
X25820714Y-13945000D01*
X25773095Y-13992619D01*
X25725476Y-14087857D01*
X25725476Y-14183095D01*
X25773095Y-14325952D01*
X26344523Y-14897380D01*
X25725476Y-14897380D01*
X24820714Y-13897380D02*
X25296904Y-13897380D01*
X25344523Y-14373571D01*
X25296904Y-14325952D01*
X25201666Y-14278333D01*
X24963571Y-14278333D01*
X24868333Y-14325952D01*
X24820714Y-14373571D01*
X24773095Y-14468809D01*
X24773095Y-14706904D01*
X24820714Y-14802142D01*
X24868333Y-14849761D01*
X24963571Y-14897380D01*
X25201666Y-14897380D01*
X25296904Y-14849761D01*
X25344523Y-14802142D01*
X26677857Y-12357380D02*
X27011190Y-11881190D01*
X27249285Y-12357380D02*
X27249285Y-11357380D01*
X26868333Y-11357380D01*
X26773095Y-11405000D01*
X26725476Y-11452619D01*
X26677857Y-11547857D01*
X26677857Y-11690714D01*
X26725476Y-11785952D01*
X26773095Y-11833571D01*
X26868333Y-11881190D01*
X27249285Y-11881190D01*
X26296904Y-11452619D02*
X26249285Y-11405000D01*
X26154047Y-11357380D01*
X25915952Y-11357380D01*
X25820714Y-11405000D01*
X25773095Y-11452619D01*
X25725476Y-11547857D01*
X25725476Y-11643095D01*
X25773095Y-11785952D01*
X26344523Y-12357380D01*
X25725476Y-12357380D01*
X24868333Y-11690714D02*
X24868333Y-12357380D01*
X25106428Y-11309761D02*
X25344523Y-12024047D01*
X24725476Y-12024047D01*
X26677857Y-9817380D02*
X27011190Y-9341190D01*
X27249285Y-9817380D02*
X27249285Y-8817380D01*
X26868333Y-8817380D01*
X26773095Y-8865000D01*
X26725476Y-8912619D01*
X26677857Y-9007857D01*
X26677857Y-9150714D01*
X26725476Y-9245952D01*
X26773095Y-9293571D01*
X26868333Y-9341190D01*
X27249285Y-9341190D01*
X26296904Y-8912619D02*
X26249285Y-8865000D01*
X26154047Y-8817380D01*
X25915952Y-8817380D01*
X25820714Y-8865000D01*
X25773095Y-8912619D01*
X25725476Y-9007857D01*
X25725476Y-9103095D01*
X25773095Y-9245952D01*
X26344523Y-9817380D01*
X25725476Y-9817380D01*
X25392142Y-8817380D02*
X24773095Y-8817380D01*
X25106428Y-9198333D01*
X24963571Y-9198333D01*
X24868333Y-9245952D01*
X24820714Y-9293571D01*
X24773095Y-9388809D01*
X24773095Y-9626904D01*
X24820714Y-9722142D01*
X24868333Y-9769761D01*
X24963571Y-9817380D01*
X25249285Y-9817380D01*
X25344523Y-9769761D01*
X25392142Y-9722142D01*
X26677857Y-7277380D02*
X27011190Y-6801190D01*
X27249285Y-7277380D02*
X27249285Y-6277380D01*
X26868333Y-6277380D01*
X26773095Y-6325000D01*
X26725476Y-6372619D01*
X26677857Y-6467857D01*
X26677857Y-6610714D01*
X26725476Y-6705952D01*
X26773095Y-6753571D01*
X26868333Y-6801190D01*
X27249285Y-6801190D01*
X26296904Y-6372619D02*
X26249285Y-6325000D01*
X26154047Y-6277380D01*
X25915952Y-6277380D01*
X25820714Y-6325000D01*
X25773095Y-6372619D01*
X25725476Y-6467857D01*
X25725476Y-6563095D01*
X25773095Y-6705952D01*
X26344523Y-7277380D01*
X25725476Y-7277380D01*
X25344523Y-6372619D02*
X25296904Y-6325000D01*
X25201666Y-6277380D01*
X24963571Y-6277380D01*
X24868333Y-6325000D01*
X24820714Y-6372619D01*
X24773095Y-6467857D01*
X24773095Y-6563095D01*
X24820714Y-6705952D01*
X25392142Y-7277380D01*
X24773095Y-7277380D01*
X15882857Y-28867380D02*
X16216190Y-28391190D01*
X16454285Y-28867380D02*
X16454285Y-27867380D01*
X16073333Y-27867380D01*
X15978095Y-27915000D01*
X15930476Y-27962619D01*
X15882857Y-28057857D01*
X15882857Y-28200714D01*
X15930476Y-28295952D01*
X15978095Y-28343571D01*
X16073333Y-28391190D01*
X16454285Y-28391190D01*
X14930476Y-28867380D02*
X15501904Y-28867380D01*
X15216190Y-28867380D02*
X15216190Y-27867380D01*
X15311428Y-28010238D01*
X15406666Y-28105476D01*
X15501904Y-28153095D01*
X14311428Y-27867380D02*
X14216190Y-27867380D01*
X14120952Y-27915000D01*
X14073333Y-27962619D01*
X14025714Y-28057857D01*
X13978095Y-28248333D01*
X13978095Y-28486428D01*
X14025714Y-28676904D01*
X14073333Y-28772142D01*
X14120952Y-28819761D01*
X14216190Y-28867380D01*
X14311428Y-28867380D01*
X14406666Y-28819761D01*
X14454285Y-28772142D01*
X14501904Y-28676904D01*
X14549523Y-28486428D01*
X14549523Y-28248333D01*
X14501904Y-28057857D01*
X14454285Y-27962619D01*
X14406666Y-27915000D01*
X14311428Y-27867380D01*
X15406666Y-23787380D02*
X15740000Y-23311190D01*
X15978095Y-23787380D02*
X15978095Y-22787380D01*
X15597142Y-22787380D01*
X15501904Y-22835000D01*
X15454285Y-22882619D01*
X15406666Y-22977857D01*
X15406666Y-23120714D01*
X15454285Y-23215952D01*
X15501904Y-23263571D01*
X15597142Y-23311190D01*
X15978095Y-23311190D01*
X14930476Y-23787380D02*
X14740000Y-23787380D01*
X14644761Y-23739761D01*
X14597142Y-23692142D01*
X14501904Y-23549285D01*
X14454285Y-23358809D01*
X14454285Y-22977857D01*
X14501904Y-22882619D01*
X14549523Y-22835000D01*
X14644761Y-22787380D01*
X14835238Y-22787380D01*
X14930476Y-22835000D01*
X14978095Y-22882619D01*
X15025714Y-22977857D01*
X15025714Y-23215952D01*
X14978095Y-23311190D01*
X14930476Y-23358809D01*
X14835238Y-23406428D01*
X14644761Y-23406428D01*
X14549523Y-23358809D01*
X14501904Y-23311190D01*
X14454285Y-23215952D01*
X15406666Y-21247380D02*
X15740000Y-20771190D01*
X15978095Y-21247380D02*
X15978095Y-20247380D01*
X15597142Y-20247380D01*
X15501904Y-20295000D01*
X15454285Y-20342619D01*
X15406666Y-20437857D01*
X15406666Y-20580714D01*
X15454285Y-20675952D01*
X15501904Y-20723571D01*
X15597142Y-20771190D01*
X15978095Y-20771190D01*
X14835238Y-20675952D02*
X14930476Y-20628333D01*
X14978095Y-20580714D01*
X15025714Y-20485476D01*
X15025714Y-20437857D01*
X14978095Y-20342619D01*
X14930476Y-20295000D01*
X14835238Y-20247380D01*
X14644761Y-20247380D01*
X14549523Y-20295000D01*
X14501904Y-20342619D01*
X14454285Y-20437857D01*
X14454285Y-20485476D01*
X14501904Y-20580714D01*
X14549523Y-20628333D01*
X14644761Y-20675952D01*
X14835238Y-20675952D01*
X14930476Y-20723571D01*
X14978095Y-20771190D01*
X15025714Y-20866428D01*
X15025714Y-21056904D01*
X14978095Y-21152142D01*
X14930476Y-21199761D01*
X14835238Y-21247380D01*
X14644761Y-21247380D01*
X14549523Y-21199761D01*
X14501904Y-21152142D01*
X14454285Y-21056904D01*
X14454285Y-20866428D01*
X14501904Y-20771190D01*
X14549523Y-20723571D01*
X14644761Y-20675952D01*
X67476666Y-49507380D02*
X67810000Y-49031190D01*
X68048095Y-49507380D02*
X68048095Y-48507380D01*
X67667142Y-48507380D01*
X67571904Y-48555000D01*
X67524285Y-48602619D01*
X67476666Y-48697857D01*
X67476666Y-48840714D01*
X67524285Y-48935952D01*
X67571904Y-48983571D01*
X67667142Y-49031190D01*
X68048095Y-49031190D01*
X67143333Y-48507380D02*
X66476666Y-48507380D01*
X66905238Y-49507380D01*
X8867380Y-35633333D02*
X8391190Y-35300000D01*
X8867380Y-35061904D02*
X7867380Y-35061904D01*
X7867380Y-35442857D01*
X7915000Y-35538095D01*
X7962619Y-35585714D01*
X8057857Y-35633333D01*
X8200714Y-35633333D01*
X8295952Y-35585714D01*
X8343571Y-35538095D01*
X8391190Y-35442857D01*
X8391190Y-35061904D01*
X7867380Y-36538095D02*
X7867380Y-36061904D01*
X8343571Y-36014285D01*
X8295952Y-36061904D01*
X8248333Y-36157142D01*
X8248333Y-36395238D01*
X8295952Y-36490476D01*
X8343571Y-36538095D01*
X8438809Y-36585714D01*
X8676904Y-36585714D01*
X8772142Y-36538095D01*
X8819761Y-36490476D01*
X8867380Y-36395238D01*
X8867380Y-36157142D01*
X8819761Y-36061904D01*
X8772142Y-36014285D01*
X17212857Y-89066666D02*
X17165238Y-89114285D01*
X17117619Y-89257142D01*
X17117619Y-89352380D01*
X17165238Y-89495238D01*
X17260476Y-89590476D01*
X17355714Y-89638095D01*
X17546190Y-89685714D01*
X17689047Y-89685714D01*
X17879523Y-89638095D01*
X17974761Y-89590476D01*
X18070000Y-89495238D01*
X18117619Y-89352380D01*
X18117619Y-89257142D01*
X18070000Y-89114285D01*
X18022380Y-89066666D01*
X17784285Y-88209523D02*
X17117619Y-88209523D01*
X18165238Y-88447619D02*
X17450952Y-88685714D01*
X17450952Y-88066666D01*
X40072857Y-89566666D02*
X40025238Y-89614285D01*
X39977619Y-89757142D01*
X39977619Y-89852380D01*
X40025238Y-89995238D01*
X40120476Y-90090476D01*
X40215714Y-90138095D01*
X40406190Y-90185714D01*
X40549047Y-90185714D01*
X40739523Y-90138095D01*
X40834761Y-90090476D01*
X40930000Y-89995238D01*
X40977619Y-89852380D01*
X40977619Y-89757142D01*
X40930000Y-89614285D01*
X40882380Y-89566666D01*
X39977619Y-89138095D02*
X40977619Y-89138095D01*
X40977619Y-88757142D01*
X40930000Y-88661904D01*
X40882380Y-88614285D01*
X40787142Y-88566666D01*
X40644285Y-88566666D01*
X40549047Y-88614285D01*
X40501428Y-88661904D01*
X40453809Y-88757142D01*
X40453809Y-89138095D01*
X39977619Y-87614285D02*
X39977619Y-88185714D01*
X39977619Y-87900000D02*
X40977619Y-87900000D01*
X40834761Y-87995238D01*
X40739523Y-88090476D01*
X40691904Y-88185714D01*
X54042857Y-89066666D02*
X53995238Y-89114285D01*
X53947619Y-89257142D01*
X53947619Y-89352380D01*
X53995238Y-89495238D01*
X54090476Y-89590476D01*
X54185714Y-89638095D01*
X54376190Y-89685714D01*
X54519047Y-89685714D01*
X54709523Y-89638095D01*
X54804761Y-89590476D01*
X54900000Y-89495238D01*
X54947619Y-89352380D01*
X54947619Y-89257142D01*
X54900000Y-89114285D01*
X54852380Y-89066666D01*
X54852380Y-88685714D02*
X54900000Y-88638095D01*
X54947619Y-88542857D01*
X54947619Y-88304761D01*
X54900000Y-88209523D01*
X54852380Y-88161904D01*
X54757142Y-88114285D01*
X54661904Y-88114285D01*
X54519047Y-88161904D01*
X53947619Y-88733333D01*
X53947619Y-88114285D01*
M02*
